<svg id="svg" version="1.1" xmlns="http://www.w3.org/2000/svg" xmlns:xlink="http://www.w3.org/1999/xlink" width="400" height="129.4718909710392" viewBox="0, 0, 400,129.4718909710392"><g id="svgg"><path id="path0" d="M215.833 27.583 L 215.833 30.507 219.009 30.462 L 222.184 30.417 222.184 27.583 L 222.184 24.750 219.009 24.705 L 215.833 24.659 215.833 27.583 M322.167 27.583 L 322.167 30.500 325.333 30.500 L 328.500 30.500 328.500 27.583 L 328.500 24.667 325.333 24.667 L 322.167 24.667 322.167 27.583 M364.500 24.927 C 364.500 25.069,364.432 25.145,364.350 25.093 C 364.267 25.042,364.121 25.225,364.025 25.500 C 363.929 25.775,363.786 26.000,363.706 26.000 C 363.627 26.000,363.460 26.259,363.336 26.576 C 363.212 26.893,363.010 27.191,362.888 27.238 C 362.766 27.285,362.667 27.411,362.667 27.518 C 362.667 27.625,362.535 27.821,362.375 27.952 C 362.202 28.094,362.185 28.141,362.333 28.067 C 362.519 27.975,362.508 28.029,362.292 28.276 C 362.131 28.460,362.000 28.663,362.000 28.728 C 362.000 28.794,361.921 28.938,361.823 29.049 C 361.726 29.159,361.502 29.475,361.326 29.750 C 361.149 30.025,360.910 30.397,360.794 30.576 C 360.678 30.756,360.490 31.005,360.375 31.130 C 359.799 31.759,360.060 31.833,362.839 31.833 L 365.512 31.833 368.923 28.404 C 370.799 26.519,372.333 24.906,372.333 24.821 C 372.333 24.731,370.710 24.667,368.417 24.667 C 364.980 24.667,364.500 24.699,364.500 24.927 M151.237 25.224 C 151.057 25.692,151.246 50.610,151.431 50.850 C 151.530 50.978,151.708 51.533,151.826 52.083 C 151.944 52.633,152.096 53.121,152.164 53.167 C 152.233 53.212,152.492 53.681,152.740 54.208 C 152.988 54.735,153.260 55.167,153.345 55.167 C 153.430 55.167,153.500 55.282,153.500 55.424 C 153.500 55.728,155.447 57.667,155.753 57.667 C 155.869 57.667,156.008 57.779,156.060 57.917 C 156.113 58.054,156.271 58.167,156.411 58.167 C 156.552 58.167,156.667 58.230,156.667 58.307 C 156.667 58.384,156.967 58.546,157.333 58.667 C 157.700 58.788,158.000 58.947,158.000 59.020 C 158.000 59.094,158.450 59.247,159.000 59.360 C 159.550 59.474,160.000 59.611,160.000 59.665 C 160.000 59.977,168.597 60.043,168.798 59.733 C 168.863 59.631,169.308 59.456,169.787 59.342 C 170.265 59.229,170.937 58.993,171.280 58.818 C 171.623 58.643,172.005 58.500,172.128 58.500 C 172.252 58.500,172.307 58.425,172.250 58.333 C 172.193 58.242,172.252 58.167,172.381 58.167 C 172.634 58.167,172.934 57.939,174.292 56.717 C 174.773 56.284,175.167 55.868,175.167 55.791 C 175.167 55.715,175.243 55.562,175.336 55.451 C 176.026 54.633,176.187 54.393,176.273 54.053 C 176.326 53.840,176.424 53.667,176.492 53.667 C 176.559 53.667,176.710 53.235,176.827 52.708 C 176.944 52.181,177.100 51.712,177.173 51.666 C 177.566 51.415,177.678 47.745,177.632 36.667 L 177.583 25.083 174.167 25.083 L 170.750 25.083 170.667 37.631 C 170.599 47.849,170.542 50.204,170.361 50.316 C 170.238 50.392,170.156 50.483,170.177 50.519 C 170.387 50.870,169.220 52.763,168.625 53.037 C 168.373 53.153,168.167 53.297,168.167 53.356 C 168.167 53.448,167.961 53.527,167.125 53.757 C 167.056 53.776,166.846 53.801,166.657 53.813 C 166.468 53.824,166.360 53.908,166.417 54.000 C 166.483 54.108,165.807 54.167,164.510 54.167 C 163.404 54.167,162.500 54.109,162.500 54.039 C 162.500 53.969,162.106 53.819,161.625 53.705 C 161.144 53.590,160.725 53.423,160.694 53.332 C 160.664 53.241,160.546 53.167,160.433 53.167 C 159.943 53.167,158.500 50.861,158.500 50.079 C 158.500 49.889,158.406 49.640,158.292 49.525 C 158.130 49.363,158.071 46.603,158.028 37.158 L 157.974 25.000 154.648 25.000 C 152.017 25.000,151.305 25.047,151.237 25.224 M338.167 30.583 L 338.167 34.667 336.417 34.667 L 334.667 34.667 334.667 37.250 L 334.667 39.833 336.417 39.833 L 338.167 39.833 338.167 47.843 C 338.167 55.909,338.250 57.236,338.777 57.550 C 338.899 57.623,339.000 57.753,339.000 57.839 C 339.000 58.182,340.166 59.165,340.812 59.367 C 341.191 59.485,341.500 59.622,341.500 59.671 C 341.500 60.065,348.766 59.992,349.039 59.595 C 349.106 59.497,349.163 58.264,349.164 56.854 L 349.167 54.292 348.625 54.414 C 348.327 54.482,347.952 54.533,347.792 54.529 C 347.631 54.524,347.500 54.591,347.500 54.677 C 347.500 55.023,345.357 54.852,344.918 54.470 L 344.500 54.107 344.500 46.970 L 344.500 39.833 346.833 39.833 L 349.167 39.833 349.167 37.250 L 349.167 34.667 346.833 34.667 L 344.500 34.667 344.480 30.708 C 344.469 28.531,344.469 26.694,344.480 26.625 C 344.491 26.556,343.075 26.500,341.333 26.500 L 338.167 26.500 338.167 30.583 M197.875 34.278 C 197.577 34.320,197.333 34.416,197.333 34.492 C 197.333 34.568,197.061 34.681,196.727 34.743 C 196.394 34.806,195.851 35.002,195.522 35.178 C 195.192 35.355,194.824 35.500,194.706 35.500 C 194.587 35.500,194.446 35.612,194.394 35.750 C 194.341 35.887,194.199 36.000,194.077 36.000 C 193.956 36.000,193.745 36.112,193.608 36.249 C 193.471 36.386,193.165 36.572,192.929 36.662 L 192.500 36.825 192.500 35.746 L 192.500 34.667 189.583 34.667 L 186.667 34.667 186.667 47.083 L 186.667 59.500 189.833 59.500 L 193.000 59.500 193.000 50.691 L 193.000 41.882 193.386 41.483 C 193.598 41.263,193.942 40.971,194.151 40.833 C 194.360 40.696,194.760 40.418,195.039 40.215 C 195.318 40.013,195.874 39.798,196.273 39.738 C 196.673 39.678,197.000 39.562,197.000 39.481 C 197.000 39.400,197.487 39.333,198.083 39.333 C 198.679 39.333,199.167 39.403,199.167 39.489 C 199.167 39.574,199.335 39.695,199.542 39.757 C 199.890 39.863,200.666 40.593,200.667 40.818 C 200.668 40.872,200.779 41.592,200.914 42.417 C 201.107 43.587,201.161 45.631,201.164 51.708 L 201.167 59.500 204.253 59.500 L 207.339 59.500 207.289 49.875 C 207.240 40.550,207.193 39.619,206.718 38.500 C 206.660 38.362,206.599 38.212,206.584 38.167 C 206.405 37.641,206.149 37.167,206.045 37.167 C 205.973 37.167,205.819 36.960,205.702 36.708 C 205.433 36.127,204.118 35.116,203.250 34.822 C 202.883 34.698,202.484 34.524,202.362 34.434 C 202.128 34.262,198.801 34.146,197.875 34.278 M260.625 34.288 C 260.281 34.324,260.000 34.412,260.000 34.483 C 260.000 34.555,259.587 34.712,259.083 34.833 C 258.579 34.954,258.167 35.101,258.167 35.160 C 258.167 35.218,257.904 35.361,257.583 35.477 C 257.262 35.593,257.000 35.758,257.000 35.844 C 257.000 35.930,256.920 36.000,256.822 36.000 C 256.378 36.000,254.031 38.922,253.750 39.826 C 253.680 40.050,253.522 40.335,253.399 40.458 C 253.277 40.580,253.127 41.053,253.067 41.507 C 253.006 41.962,252.898 42.333,252.825 42.333 C 252.753 42.333,252.644 42.840,252.585 43.458 C 252.525 44.077,252.430 44.696,252.373 44.833 C 252.224 45.192,252.190 49.051,252.334 49.250 C 252.400 49.342,252.501 49.936,252.557 50.571 C 252.613 51.206,252.729 51.769,252.813 51.821 C 252.898 51.874,253.021 52.277,253.087 52.717 C 253.153 53.157,253.301 53.611,253.417 53.726 C 253.532 53.841,253.679 54.175,253.743 54.467 C 253.807 54.759,253.947 55.055,254.055 55.124 C 254.163 55.193,254.363 55.473,254.500 55.746 C 254.824 56.389,257.079 58.617,257.552 58.762 C 257.753 58.824,258.018 58.955,258.142 59.055 C 258.266 59.154,258.453 59.256,258.558 59.281 C 258.664 59.307,258.975 59.377,259.250 59.439 C 259.525 59.500,259.804 59.632,259.869 59.733 C 260.038 59.993,266.800 59.988,266.964 59.728 C 267.030 59.625,267.515 59.444,268.042 59.327 C 268.569 59.210,269.000 59.069,269.000 59.014 C 269.000 58.959,269.244 58.809,269.542 58.679 C 269.840 58.549,270.121 58.396,270.167 58.338 C 270.212 58.280,270.549 58.011,270.913 57.741 C 271.871 57.032,272.167 56.774,272.167 56.647 C 272.167 56.586,272.392 56.294,272.668 55.998 C 273.334 55.286,273.483 54.684,273.066 54.396 C 272.892 54.276,272.664 54.105,272.559 54.016 C 272.455 53.926,272.334 53.888,272.292 53.931 C 272.249 53.973,272.119 53.894,272.003 53.754 C 271.887 53.614,271.689 53.500,271.563 53.500 C 271.437 53.500,271.333 53.434,271.333 53.354 C 271.333 53.273,271.090 53.109,270.792 52.988 C 270.494 52.868,270.190 52.671,270.117 52.551 C 270.043 52.431,269.875 52.333,269.742 52.333 C 269.609 52.333,269.500 52.258,269.500 52.167 C 269.500 51.746,268.739 52.076,267.950 52.837 C 266.687 54.056,266.665 54.072,265.686 54.469 C 264.691 54.873,262.167 55.002,262.167 54.649 C 262.167 54.547,262.060 54.505,261.929 54.556 C 261.798 54.606,261.601 54.539,261.492 54.407 C 261.382 54.275,261.202 54.167,261.090 54.167 C 260.157 54.167,258.667 50.822,258.667 48.727 L 258.667 48.167 266.017 48.167 L 273.367 48.167 273.308 45.359 C 273.272 43.617,273.179 42.462,273.063 42.317 C 272.960 42.189,272.824 41.729,272.761 41.296 C 272.699 40.862,272.576 40.463,272.488 40.409 C 272.400 40.355,272.371 40.240,272.424 40.155 C 272.477 40.070,272.446 40.000,272.356 40.000 C 272.266 40.000,272.101 39.719,271.989 39.375 C 271.878 39.031,271.684 38.690,271.560 38.617 C 271.435 38.543,271.333 38.400,271.333 38.297 C 271.333 38.195,271.220 37.993,271.081 37.847 C 270.942 37.702,270.545 37.283,270.200 36.917 C 269.508 36.183,268.345 35.333,268.033 35.333 C 267.923 35.333,267.833 35.273,267.833 35.200 C 267.833 35.042,266.850 34.667,266.437 34.667 C 266.277 34.667,266.187 34.602,266.236 34.523 C 266.418 34.228,262.690 34.072,260.625 34.288 M290.302 34.330 C 290.056 34.405,289.812 34.423,289.761 34.372 C 289.709 34.320,289.667 34.353,289.667 34.446 C 289.667 34.538,289.367 34.704,289.000 34.814 C 288.633 34.923,288.333 35.085,288.333 35.173 C 288.333 35.261,288.223 35.333,288.089 35.333 C 287.955 35.333,287.765 35.483,287.667 35.667 C 287.569 35.850,287.378 36.000,287.244 36.000 C 287.110 36.000,287.000 36.085,287.000 36.189 C 287.000 36.293,286.831 36.549,286.625 36.757 C 286.126 37.261,285.903 37.549,285.788 37.841 C 285.736 37.974,285.687 37.315,285.680 36.375 L 285.667 34.667 282.667 34.667 L 279.667 34.667 279.667 47.087 L 279.667 59.507 282.875 59.462 L 286.083 59.417 286.167 51.699 L 286.250 43.981 286.667 43.661 C 286.896 43.485,287.013 43.339,286.927 43.337 C 286.685 43.331,287.700 42.333,287.948 42.333 C 288.068 42.333,288.167 42.259,288.167 42.169 C 288.167 41.899,289.370 41.197,290.042 41.076 C 290.385 41.014,290.667 40.896,290.667 40.815 C 290.667 40.733,291.117 40.667,291.667 40.667 L 292.667 40.667 292.667 37.417 L 292.667 34.167 291.708 34.181 C 291.181 34.189,290.548 34.256,290.302 34.330 M303.042 34.287 C 302.744 34.324,302.500 34.411,302.500 34.479 C 302.500 34.548,302.125 34.700,301.667 34.817 C 301.208 34.935,300.833 35.099,300.833 35.182 C 300.833 35.265,300.725 35.333,300.592 35.333 C 300.282 35.333,298.167 37.321,298.167 37.612 C 298.167 37.734,298.092 37.833,298.000 37.833 C 297.908 37.833,297.845 37.890,297.860 37.958 C 297.875 38.027,297.800 38.294,297.694 38.553 C 297.587 38.811,297.500 39.092,297.500 39.178 C 297.500 39.263,297.433 39.333,297.351 39.333 C 297.269 39.333,297.191 40.271,297.177 41.417 C 297.162 42.649,297.217 43.500,297.311 43.500 C 297.399 43.500,297.524 43.815,297.589 44.200 C 297.663 44.637,297.887 45.079,298.187 45.379 C 298.451 45.643,298.667 45.928,298.667 46.013 C 298.667 46.097,298.742 46.167,298.833 46.167 C 298.925 46.167,299.000 46.279,299.000 46.417 C 299.000 46.554,299.098 46.667,299.219 46.667 C 299.339 46.667,299.617 46.835,299.838 47.042 C 300.248 47.426,300.602 47.661,301.333 48.032 C 301.563 48.148,301.787 48.288,301.833 48.342 C 301.879 48.397,302.292 48.544,302.750 48.669 C 303.208 48.795,303.682 48.996,303.804 49.115 C 303.925 49.235,304.187 49.336,304.387 49.339 C 304.587 49.342,305.050 49.490,305.417 49.667 C 305.783 49.844,306.177 49.991,306.292 49.994 C 306.406 49.997,306.500 50.079,306.500 50.177 C 306.500 50.274,306.583 50.301,306.685 50.238 C 306.787 50.175,306.918 50.190,306.977 50.270 C 307.035 50.351,307.355 50.555,307.688 50.724 C 309.152 51.467,310.006 53.148,309.179 53.659 C 309.064 53.730,308.877 53.967,308.763 54.186 C 308.649 54.404,308.468 54.565,308.361 54.542 C 308.254 54.519,308.167 54.572,308.167 54.659 C 308.167 54.747,307.904 54.867,307.583 54.928 C 307.262 54.988,307.000 55.104,307.000 55.185 C 307.000 55.267,306.587 55.333,306.083 55.333 C 305.579 55.333,305.167 55.258,305.167 55.167 C 305.167 55.075,305.011 55.000,304.821 55.000 C 304.032 55.000,301.000 52.751,301.000 52.166 C 301.000 51.731,300.316 51.652,299.850 52.032 C 299.591 52.244,299.207 52.529,298.996 52.667 C 298.784 52.804,298.486 53.029,298.333 53.167 C 298.045 53.425,297.802 53.595,296.875 54.187 C 296.236 54.595,296.198 54.919,296.710 55.612 C 297.272 56.374,298.936 58.000,299.154 58.000 C 299.258 58.000,299.382 58.100,299.429 58.222 C 299.476 58.344,299.773 58.545,300.090 58.669 C 300.407 58.794,300.667 58.944,300.667 59.003 C 300.667 59.063,300.760 59.120,300.875 59.130 C 301.361 59.175,302.593 59.591,302.702 59.747 C 302.873 59.990,309.307 59.976,309.464 59.732 C 309.530 59.631,309.977 59.448,310.458 59.326 C 310.940 59.204,311.333 59.048,311.333 58.980 C 311.333 58.912,311.501 58.803,311.706 58.738 C 312.141 58.600,314.000 56.806,314.000 56.525 C 314.000 56.419,314.088 56.333,314.194 56.333 C 314.301 56.333,314.342 56.286,314.284 56.228 C 314.226 56.170,314.288 55.966,314.423 55.774 C 314.557 55.583,314.667 55.251,314.667 55.036 C 314.667 54.822,314.727 54.684,314.801 54.730 C 315.102 54.916,315.164 50.543,314.863 50.347 C 314.782 50.294,314.660 49.953,314.593 49.589 C 314.438 48.744,312.819 46.667,312.316 46.667 C 312.234 46.667,312.167 46.590,312.167 46.496 C 312.167 46.402,311.979 46.254,311.750 46.167 C 311.521 46.080,311.333 45.941,311.333 45.858 C 311.333 45.776,311.117 45.665,310.853 45.612 C 310.589 45.560,310.255 45.398,310.109 45.252 C 309.964 45.107,309.824 44.997,309.798 45.007 C 309.631 45.073,308.167 44.600,308.167 44.480 C 308.167 44.399,308.035 44.333,307.875 44.332 C 307.715 44.332,307.396 44.234,307.167 44.115 C 306.938 43.996,306.394 43.799,305.958 43.677 C 305.523 43.556,305.167 43.406,305.167 43.345 C 305.167 43.284,304.885 43.132,304.542 43.008 C 303.530 42.643,302.833 41.830,302.833 41.017 C 302.833 40.641,302.892 40.333,302.963 40.333 C 303.035 40.333,303.177 40.113,303.278 39.844 C 303.420 39.468,303.602 39.329,304.065 39.243 C 304.396 39.180,304.667 39.063,304.667 38.981 C 304.667 38.900,305.079 38.833,305.583 38.833 C 306.087 38.833,306.500 38.908,306.500 39.000 C 306.500 39.092,306.608 39.167,306.739 39.167 C 306.871 39.167,307.189 39.247,307.447 39.345 C 307.706 39.443,307.954 39.533,308.000 39.544 C 308.119 39.573,308.403 39.818,309.261 40.625 C 310.051 41.369,310.636 41.522,311.003 41.079 C 311.119 40.940,311.245 40.856,311.282 40.893 C 311.320 40.931,311.727 40.595,312.186 40.147 C 312.646 39.700,313.061 39.333,313.109 39.333 C 313.309 39.333,314.333 38.241,314.333 38.027 C 314.333 37.899,314.039 37.522,313.679 37.189 C 312.536 36.132,312.301 35.960,311.333 35.468 C 311.104 35.352,310.879 35.210,310.833 35.152 C 310.760 35.059,309.980 34.831,308.000 34.324 C 307.430 34.178,304.119 34.154,303.042 34.287 M361.417 34.279 C 361.233 34.329,361.008 34.426,360.917 34.496 C 360.825 34.566,360.360 34.722,359.883 34.841 C 359.407 34.961,359.051 35.114,359.093 35.183 C 359.135 35.251,358.912 35.391,358.598 35.495 C 357.995 35.694,355.667 37.911,355.667 38.286 C 355.667 38.404,355.610 38.500,355.542 38.500 C 355.337 38.500,354.500 40.102,354.500 40.493 C 354.500 40.691,354.430 40.810,354.345 40.757 C 354.259 40.704,354.095 41.221,353.980 41.905 C 353.865 42.589,353.722 43.118,353.662 43.081 C 353.369 42.899,353.317 50.780,353.610 50.971 C 353.705 51.033,353.834 51.411,353.897 51.812 C 353.959 52.213,354.158 52.866,354.339 53.262 C 354.519 53.658,354.667 54.098,354.667 54.241 C 354.667 54.383,354.746 54.500,354.843 54.500 C 354.940 54.500,354.979 54.567,354.928 54.648 C 354.878 54.729,354.949 54.888,355.085 55.002 C 355.222 55.115,355.333 55.311,355.333 55.437 C 355.333 55.563,355.399 55.667,355.480 55.667 C 355.560 55.667,355.719 55.891,355.832 56.165 C 355.946 56.438,356.105 56.621,356.186 56.571 C 356.267 56.521,356.333 56.546,356.333 56.625 C 356.333 56.819,356.832 57.339,357.412 57.750 C 357.670 57.933,358.000 58.215,358.144 58.375 C 358.289 58.535,358.498 58.667,358.608 58.667 C 358.719 58.667,358.925 58.782,359.065 58.923 C 359.206 59.063,359.380 59.185,359.452 59.193 C 359.524 59.200,359.757 59.273,359.969 59.353 C 360.181 59.434,360.456 59.500,360.580 59.500 C 360.704 59.500,360.837 59.594,360.875 59.708 C 360.969 59.990,367.619 60.010,367.798 59.729 C 367.863 59.626,368.179 59.486,368.500 59.419 C 368.821 59.351,369.402 59.152,369.791 58.977 C 370.180 58.802,370.668 58.582,370.874 58.489 C 371.612 58.155,371.996 57.885,371.888 57.777 C 371.827 57.716,371.851 57.667,371.940 57.667 C 372.030 57.667,372.492 57.292,372.968 56.833 C 373.443 56.375,373.790 56.000,373.738 56.000 C 373.685 56.000,373.742 55.890,373.863 55.756 C 374.679 54.852,374.692 54.637,373.958 54.258 C 372.877 53.699,372.414 53.413,372.294 53.227 C 372.226 53.123,371.974 52.988,371.732 52.927 C 371.491 52.867,371.337 52.774,371.391 52.721 C 371.444 52.668,371.230 52.493,370.916 52.333 C 370.323 52.031,369.564 51.786,369.728 51.950 C 369.808 52.030,368.796 53.058,367.801 53.907 C 367.646 54.039,367.196 54.240,366.801 54.352 C 366.406 54.464,366.012 54.619,365.925 54.695 C 365.672 54.916,363.500 54.866,363.500 54.639 C 363.500 54.532,363.456 54.488,363.403 54.541 C 363.052 54.892,361.187 53.521,360.824 52.645 C 360.715 52.382,360.570 52.167,360.501 52.167 C 360.432 52.167,360.325 51.850,360.263 51.463 C 360.202 51.076,360.081 50.717,359.997 50.665 C 359.912 50.612,359.792 50.029,359.730 49.368 L 359.619 48.167 367.059 48.167 L 374.500 48.167 374.500 45.760 C 374.500 44.436,374.434 43.312,374.353 43.262 C 374.272 43.212,374.152 42.739,374.086 42.211 C 374.020 41.682,373.919 41.175,373.861 41.083 C 373.803 40.992,373.746 40.879,373.736 40.833 C 373.637 40.410,373.273 39.667,373.164 39.667 C 373.088 39.667,372.976 39.437,372.914 39.155 C 372.852 38.874,372.696 38.604,372.568 38.554 C 372.439 38.505,372.333 38.369,372.333 38.253 C 372.333 38.136,372.219 37.946,372.079 37.830 C 371.940 37.714,371.858 37.586,371.899 37.546 C 372.002 37.442,370.704 36.167,370.495 36.167 C 370.400 36.167,370.280 36.055,370.227 35.918 C 370.175 35.781,370.065 35.710,369.983 35.761 C 369.900 35.812,369.833 35.775,369.833 35.680 C 369.833 35.584,369.646 35.459,369.417 35.402 C 369.188 35.344,369.000 35.240,369.000 35.170 C 369.000 35.100,368.644 34.945,368.208 34.826 C 367.773 34.706,367.363 34.527,367.298 34.429 C 367.173 34.241,362.040 34.110,361.417 34.279 M215.833 47.080 L 215.833 59.500 219.042 59.500 L 222.250 59.500 222.211 47.125 L 222.171 34.750 219.002 34.705 L 215.833 34.659 215.833 47.080 M228.239 35.042 C 228.277 35.248,228.314 35.560,228.321 35.736 C 228.328 35.912,228.389 36.000,228.457 35.932 C 228.578 35.811,229.017 37.457,229.020 38.038 C 229.021 38.197,229.087 38.367,229.168 38.417 C 229.248 38.467,229.364 38.844,229.426 39.254 C 229.487 39.664,229.594 40.000,229.663 40.000 C 229.732 40.000,229.889 40.563,230.011 41.250 C 230.133 41.938,230.285 42.500,230.349 42.500 C 230.412 42.500,230.545 42.958,230.644 43.518 C 230.742 44.079,230.893 44.622,230.979 44.727 C 231.065 44.831,231.189 45.292,231.255 45.750 C 231.321 46.208,231.447 46.674,231.535 46.784 C 231.623 46.895,231.647 47.064,231.588 47.159 C 231.529 47.255,231.551 47.333,231.638 47.333 C 231.725 47.333,231.846 47.671,231.908 48.083 C 231.970 48.496,232.081 48.833,232.155 48.833 C 232.230 48.833,232.343 49.226,232.406 49.706 C 232.470 50.186,232.624 50.805,232.750 51.081 C 232.875 51.357,233.065 52.033,233.173 52.583 C 233.281 53.133,233.430 53.658,233.503 53.750 C 233.577 53.842,233.688 54.217,233.749 54.583 C 233.811 54.950,234.006 55.682,234.181 56.209 C 234.356 56.736,234.500 57.313,234.500 57.491 C 234.500 57.668,234.571 57.857,234.657 57.911 C 234.743 57.964,234.864 58.344,234.926 58.754 L 235.038 59.500 238.418 59.500 L 241.797 59.500 242.012 58.417 C 242.131 57.821,242.281 57.333,242.345 57.333 C 242.409 57.333,242.515 56.977,242.580 56.542 C 242.645 56.106,242.795 55.517,242.914 55.233 C 243.032 54.949,243.182 54.405,243.246 54.025 C 243.310 53.644,243.431 53.333,243.515 53.333 C 243.598 53.333,243.654 53.277,243.639 53.208 C 243.584 52.962,244.069 51.000,244.185 51.000 C 244.250 51.000,244.392 50.475,244.500 49.833 C 244.608 49.192,244.755 48.667,244.827 48.667 C 244.898 48.667,245.007 48.292,245.068 47.833 C 245.128 47.375,245.251 47.000,245.339 47.000 C 245.428 47.000,245.500 46.840,245.500 46.644 C 245.500 46.270,245.776 45.147,246.006 44.583 C 246.081 44.400,246.233 43.837,246.343 43.333 C 246.453 42.829,246.598 42.342,246.664 42.250 C 246.729 42.158,246.884 41.596,247.007 41.000 C 247.129 40.404,247.328 39.729,247.447 39.500 C 247.567 39.271,247.665 38.882,247.666 38.635 C 247.666 38.388,247.737 38.143,247.822 38.090 C 247.908 38.037,248.066 37.564,248.175 37.039 C 248.283 36.513,248.427 36.046,248.494 36.000 C 248.560 35.954,248.660 35.635,248.714 35.292 L 248.812 34.667 245.666 34.667 C 242.418 34.667,242.356 34.680,242.296 35.402 C 242.277 35.639,242.207 35.833,242.142 35.833 C 242.077 35.833,241.972 36.246,241.909 36.750 C 241.846 37.254,241.738 37.667,241.668 37.667 C 241.598 37.667,241.447 38.267,241.333 39.000 C 241.219 39.733,241.060 40.333,240.980 40.333 C 240.899 40.333,240.848 40.390,240.865 40.458 C 240.926 40.700,240.445 43.000,240.333 43.000 C 240.271 43.000,240.126 43.637,240.010 44.416 C 239.894 45.195,239.740 45.796,239.668 45.751 C 239.597 45.707,239.487 46.081,239.424 46.583 C 239.361 47.084,239.249 47.532,239.175 47.578 C 239.101 47.624,238.943 48.262,238.824 48.997 C 238.704 49.732,238.556 50.333,238.494 50.333 C 238.359 50.333,237.884 48.550,237.576 46.883 C 237.453 46.222,237.281 45.547,237.193 45.383 C 237.106 45.218,236.980 44.652,236.914 44.125 C 236.849 43.598,236.739 43.167,236.670 43.167 C 236.602 43.167,236.455 42.605,236.345 41.919 C 236.234 41.233,236.083 40.635,236.009 40.589 C 235.935 40.543,235.781 39.905,235.667 39.170 C 235.553 38.435,235.402 37.833,235.332 37.833 C 235.262 37.833,235.154 37.422,235.091 36.919 C 235.028 36.417,234.902 35.959,234.810 35.902 C 234.719 35.846,234.686 35.689,234.738 35.554 C 235.043 34.760,234.685 34.667,231.329 34.667 L 228.169 34.667 228.239 35.042 M322.167 47.083 L 322.167 59.500 325.333 59.500 L 328.500 59.500 328.500 47.083 L 328.500 34.667 325.333 34.667 L 322.167 34.667 322.167 47.083 M264.083 39.000 C 264.140 39.092,264.327 39.167,264.498 39.167 C 264.669 39.167,264.909 39.260,265.030 39.375 C 265.151 39.490,265.448 39.685,265.690 39.810 C 265.932 39.935,266.232 40.235,266.357 40.477 C 266.481 40.719,266.674 41.013,266.785 41.130 C 266.896 41.248,267.036 41.604,267.095 41.922 C 267.155 42.240,267.270 42.500,267.352 42.500 C 267.433 42.500,267.500 42.800,267.500 43.167 L 267.500 43.833 263.083 43.833 C 258.060 43.833,258.485 43.988,258.869 42.304 C 259.071 41.423,259.147 41.273,259.708 40.655 C 259.869 40.478,260.000 40.270,260.000 40.193 C 260.000 40.116,260.188 39.968,260.417 39.864 C 260.646 39.759,260.833 39.601,260.833 39.511 C 260.833 39.422,261.097 39.299,261.419 39.239 C 261.740 39.178,262.045 39.062,262.095 38.981 C 262.221 38.778,263.956 38.794,264.083 39.000 M365.239 38.982 C 365.289 39.063,365.537 39.182,365.789 39.245 C 366.357 39.387,367.667 40.439,367.667 40.753 C 367.667 40.880,367.767 41.043,367.890 41.117 C 368.143 41.268,368.500 42.558,368.500 43.324 L 368.500 43.833 364.064 43.833 L 359.628 43.833 359.748 42.875 C 359.813 42.348,359.929 41.878,360.004 41.832 C 360.079 41.785,360.192 41.540,360.255 41.288 C 360.319 41.036,360.464 40.774,360.578 40.706 C 360.691 40.639,360.867 40.427,360.967 40.236 C 361.067 40.045,361.509 39.715,361.949 39.502 C 362.390 39.289,362.863 39.056,363.000 38.984 C 363.347 38.802,365.127 38.800,365.239 38.982 M248.833 69.583 L 248.833 72.500 252.000 72.500 L 255.167 72.500 255.167 69.583 L 255.167 66.667 252.000 66.667 L 248.833 66.667 248.833 69.583 M164.578 67.208 C 164.536 67.323,164.482 69.873,164.459 72.875 L 164.417 78.332 163.927 77.911 C 163.658 77.680,163.264 77.447,163.052 77.394 C 162.840 77.341,162.667 77.238,162.667 77.165 C 162.667 77.055,162.409 76.927,161.500 76.586 C 161.454 76.569,161.267 76.486,161.083 76.402 C 160.355 76.070,156.315 76.236,155.467 76.633 C 155.037 76.835,154.606 77.000,154.509 77.000 C 154.412 77.000,154.333 77.057,154.333 77.126 C 154.333 77.195,154.100 77.355,153.815 77.481 C 152.870 77.900,150.000 81.299,150.000 81.999 C 150.000 82.099,149.859 82.458,149.687 82.798 C 149.514 83.138,149.318 83.754,149.251 84.167 C 149.184 84.579,149.044 85.022,148.939 85.151 C 148.684 85.467,148.681 92.467,148.937 92.634 C 149.035 92.698,149.165 93.117,149.225 93.567 C 149.285 94.016,149.446 94.608,149.584 94.884 C 149.721 95.159,149.836 95.467,149.839 95.567 C 149.842 95.668,149.990 96.050,150.167 96.417 C 150.344 96.783,150.491 97.179,150.494 97.297 C 150.497 97.414,150.612 97.554,150.750 97.606 C 150.887 97.659,151.000 97.798,151.000 97.914 C 151.000 98.031,151.114 98.221,151.254 98.337 C 151.394 98.453,151.473 98.583,151.429 98.626 C 151.334 98.722,152.421 99.771,153.000 100.142 C 153.229 100.289,153.473 100.498,153.543 100.608 C 153.612 100.718,153.894 100.857,154.169 100.917 C 154.444 100.978,154.631 101.090,154.583 101.167 C 154.536 101.243,154.741 101.359,155.040 101.424 C 155.339 101.489,155.633 101.619,155.693 101.714 C 156.132 102.404,161.976 101.867,162.793 101.062 C 162.908 100.948,163.152 100.808,163.334 100.750 C 163.517 100.692,163.667 100.574,163.667 100.489 C 163.667 100.403,163.775 100.333,163.907 100.333 C 164.040 100.333,164.247 100.202,164.368 100.042 C 164.863 99.384,165.268 99.324,165.198 99.918 C 165.163 100.216,165.217 100.511,165.317 100.573 C 165.418 100.636,165.500 100.871,165.500 101.097 L 165.500 101.508 168.170 101.462 L 170.839 101.417 170.841 95.750 C 170.841 92.633,170.840 84.890,170.838 78.542 L 170.833 67.000 167.745 67.000 C 165.426 67.000,164.637 67.052,164.578 67.208 M220.281 67.108 C 220.218 67.171,220.167 74.935,220.167 84.361 L 220.167 101.500 231.083 101.500 L 242.000 101.500 242.000 98.583 L 242.000 95.667 234.668 95.667 L 227.335 95.667 227.293 81.375 L 227.250 67.083 223.823 67.038 C 221.938 67.014,220.344 67.045,220.281 67.108 M390.167 76.017 C 390.167 76.072,389.571 76.163,388.844 76.219 C 387.997 76.285,387.294 76.443,386.888 76.661 C 386.540 76.847,386.194 77.000,386.120 77.000 C 385.977 77.000,385.914 77.046,384.982 77.824 C 384.652 78.100,384.335 78.280,384.279 78.223 C 384.222 78.167,384.101 78.318,384.009 78.560 C 383.917 78.802,383.766 79.000,383.674 79.000 C 383.582 79.000,383.459 79.188,383.402 79.417 C 383.344 79.646,383.233 79.833,383.155 79.833 C 383.077 79.833,382.927 80.152,382.822 80.542 C 382.716 80.931,382.558 81.406,382.469 81.596 C 382.283 81.996,382.380 84.604,382.618 85.583 C 382.879 86.662,384.584 89.000,385.109 89.000 C 385.232 89.000,385.333 89.074,385.333 89.164 C 385.333 89.255,385.577 89.441,385.875 89.578 C 386.173 89.715,386.529 89.901,386.667 89.991 C 387.102 90.277,388.471 90.833,388.741 90.833 C 388.883 90.833,389.000 90.903,389.000 90.988 C 389.000 91.073,389.412 91.235,389.917 91.348 C 390.421 91.461,390.833 91.607,390.833 91.673 C 390.833 91.740,391.171 91.879,391.583 91.983 C 391.996 92.086,392.333 92.245,392.333 92.336 C 392.333 92.426,392.390 92.488,392.458 92.473 C 392.681 92.425,393.500 92.821,393.500 92.976 C 393.500 93.060,393.636 93.163,393.803 93.207 C 395.170 93.565,394.481 96.422,392.917 96.885 C 391.781 97.220,389.167 97.061,389.167 96.656 C 389.167 96.582,388.923 96.429,388.625 96.315 C 388.327 96.201,387.671 95.644,387.167 95.076 C 386.038 93.807,385.615 93.530,385.256 93.829 C 385.115 93.945,385.000 93.983,385.000 93.913 C 385.000 93.842,384.826 93.964,384.614 94.184 C 384.402 94.404,384.054 94.696,383.841 94.833 C 383.628 94.971,383.247 95.252,382.994 95.458 C 382.742 95.665,382.448 95.833,382.341 95.833 C 382.234 95.833,382.187 95.897,382.235 95.976 C 382.283 96.054,382.138 96.202,381.911 96.305 C 381.387 96.544,381.387 97.002,381.912 97.495 C 382.138 97.708,382.299 97.927,382.269 97.983 C 382.239 98.038,382.542 98.404,382.941 98.796 C 383.340 99.187,383.668 99.450,383.669 99.379 C 383.671 99.308,383.727 99.330,383.794 99.428 C 384.966 101.128,390.338 102.495,393.250 101.834 C 393.617 101.751,394.292 101.604,394.750 101.507 C 395.583 101.331,397.034 100.694,397.139 100.458 C 397.169 100.390,397.284 100.333,397.394 100.333 C 397.721 100.333,399.270 98.564,399.656 97.750 C 400.257 96.481,399.987 90.500,399.329 90.500 C 399.240 90.500,399.167 90.398,399.167 90.273 C 399.167 89.947,397.535 88.334,396.928 88.060 C 396.342 87.795,395.788 87.465,395.667 87.310 C 395.621 87.251,395.265 87.108,394.875 86.992 C 394.485 86.876,394.167 86.729,394.167 86.667 C 394.167 86.604,393.754 86.454,393.250 86.333 C 392.746 86.212,392.333 86.062,392.333 86.000 C 392.333 85.937,391.922 85.794,391.420 85.682 C 390.917 85.569,390.465 85.412,390.416 85.333 C 390.367 85.253,389.921 84.996,389.425 84.761 C 388.915 84.520,388.477 84.189,388.417 84.001 C 388.359 83.817,388.241 83.667,388.155 83.667 C 387.400 83.667,388.359 81.427,389.192 81.244 C 389.453 81.187,389.667 81.071,389.667 80.987 C 389.667 80.902,390.229 80.833,390.917 80.833 C 391.604 80.833,392.167 80.896,392.167 80.973 C 392.167 81.050,392.467 81.212,392.833 81.333 C 393.200 81.454,393.500 81.616,393.500 81.693 C 393.500 81.770,393.598 81.833,393.717 81.833 C 393.836 81.833,394.255 82.171,394.649 82.583 C 395.466 83.441,395.782 83.503,396.333 82.917 C 396.549 82.688,396.783 82.500,396.854 82.500 C 396.926 82.500,397.359 82.125,397.817 81.667 C 398.276 81.208,398.716 80.833,398.796 80.833 C 398.951 80.833,399.667 80.124,399.667 79.971 C 399.667 79.784,397.950 78.173,397.648 78.077 C 397.475 78.023,397.333 77.912,397.333 77.833 C 397.333 77.753,397.071 77.593,396.750 77.477 C 396.429 77.361,396.167 77.206,396.167 77.133 C 396.167 77.060,396.050 77.000,395.908 77.000 C 395.765 77.000,395.322 76.851,394.922 76.669 C 394.523 76.487,393.646 76.293,392.973 76.239 C 392.300 76.184,391.637 76.096,391.500 76.043 C 391.158 75.913,390.167 75.893,390.167 76.017 M185.250 76.282 C 184.975 76.318,184.637 76.387,184.500 76.435 C 184.362 76.482,184.250 76.499,184.250 76.472 C 184.250 76.445,184.065 76.553,183.838 76.711 C 183.611 76.870,183.320 77.000,183.191 77.000 C 182.685 77.000,179.854 79.156,179.839 79.554 C 179.836 79.629,179.740 79.789,179.625 79.910 C 178.665 80.922,177.563 83.322,177.392 84.774 C 177.335 85.265,177.234 85.667,177.168 85.667 C 176.989 85.667,176.854 88.977,176.958 90.849 C 177.007 91.752,177.112 92.450,177.191 92.402 C 177.269 92.353,177.335 92.562,177.337 92.865 C 177.339 93.168,177.419 93.717,177.514 94.083 C 177.609 94.450,177.695 94.844,177.705 94.958 C 177.714 95.073,177.785 95.167,177.861 95.167 C 177.938 95.167,178.000 95.272,178.000 95.401 C 178.000 95.683,178.825 97.326,179.123 97.637 C 179.238 97.758,179.333 97.920,179.333 97.996 C 179.333 98.202,181.274 100.167,181.476 100.167 C 181.572 100.167,181.710 100.260,181.783 100.375 C 181.949 100.634,183.690 101.500,184.044 101.500 C 184.188 101.500,184.337 101.594,184.375 101.708 C 184.428 101.866,185.287 101.917,187.917 101.917 C 190.546 101.917,191.406 101.866,191.458 101.708 C 191.497 101.594,191.681 101.500,191.868 101.500 C 192.314 101.500,194.500 100.644,194.500 100.469 C 194.500 100.394,194.594 100.332,194.708 100.331 C 195.086 100.327,197.500 98.184,197.500 97.852 C 197.500 97.759,197.605 97.623,197.734 97.550 C 197.949 97.427,198.066 97.023,198.019 96.560 C 198.009 96.455,197.803 96.320,197.563 96.260 C 197.323 96.200,197.026 96.060,196.902 95.950 C 196.367 95.472,196.231 95.395,196.038 95.460 C 195.925 95.497,195.833 95.445,195.833 95.343 C 195.833 95.242,195.665 95.080,195.458 94.984 C 194.589 94.581,194.016 94.206,194.116 94.107 C 194.174 94.048,194.022 94.000,193.778 94.000 C 193.533 94.000,193.183 94.150,193.000 94.333 C 192.817 94.517,192.710 94.667,192.762 94.667 C 192.814 94.667,192.745 94.779,192.607 94.917 C 192.470 95.054,192.277 95.167,192.179 95.167 C 192.080 95.167,192.000 95.243,192.000 95.337 C 192.000 95.570,190.507 96.500,190.134 96.500 C 189.969 96.500,189.833 96.575,189.833 96.667 C 189.833 96.765,189.222 96.833,188.333 96.833 C 187.508 96.833,186.833 96.764,186.833 96.680 C 186.833 96.596,186.604 96.476,186.323 96.414 C 185.616 96.259,184.427 95.008,184.225 94.208 C 184.173 94.002,184.070 93.833,183.997 93.833 C 183.923 93.833,183.812 93.533,183.750 93.167 C 183.688 92.800,183.588 92.500,183.527 92.500 C 183.466 92.500,183.411 92.219,183.404 91.875 C 183.397 91.531,183.332 91.006,183.258 90.708 L 183.125 90.167 190.672 90.167 L 198.218 90.167 198.117 87.568 C 198.061 86.139,197.948 84.882,197.866 84.776 C 197.784 84.670,197.620 84.115,197.502 83.542 C 197.384 82.969,197.239 82.500,197.178 82.500 C 197.118 82.500,196.981 82.181,196.872 81.792 C 196.764 81.402,196.449 80.829,196.171 80.519 C 195.894 80.209,195.667 79.900,195.667 79.834 C 195.667 79.330,192.888 77.146,191.946 76.909 C 191.701 76.848,191.500 76.743,191.500 76.676 C 191.500 76.610,191.406 76.548,191.292 76.538 C 191.177 76.528,190.783 76.443,190.417 76.348 C 189.787 76.184,186.332 76.140,185.250 76.282 M273.833 76.355 C 273.159 76.533,273.099 76.552,272.375 76.827 C 272.077 76.940,271.833 77.086,271.833 77.152 C 271.833 77.217,271.571 77.374,271.250 77.500 C 270.929 77.626,270.667 77.782,270.667 77.848 C 270.667 77.913,270.404 78.122,270.083 78.311 L 269.500 78.655 269.500 77.578 L 269.500 76.500 266.667 76.500 L 263.833 76.500 263.833 89.000 L 263.833 101.500 266.917 101.500 L 270.000 101.500 270.000 92.698 C 270.000 83.026,269.960 83.413,270.994 83.085 C 271.181 83.026,271.333 82.916,271.333 82.842 C 271.333 82.767,271.802 82.419,272.375 82.068 C 274.362 80.852,276.788 81.233,277.104 82.810 C 277.161 83.098,277.274 83.333,277.354 83.333 C 277.436 83.333,277.500 87.337,277.500 92.417 L 277.500 101.500 280.667 101.500 L 283.833 101.500 283.833 92.603 L 283.833 83.705 284.227 83.447 C 284.443 83.306,284.724 83.090,284.852 82.968 C 285.232 82.603,286.495 81.796,287.136 81.507 C 287.831 81.194,289.566 81.290,290.000 81.667 C 290.211 81.850,290.442 82.000,290.512 82.000 C 290.583 82.000,290.690 82.225,290.750 82.500 C 290.810 82.775,290.929 83.000,291.013 83.000 C 291.105 83.000,291.167 86.727,291.167 92.250 L 291.167 101.500 294.333 101.500 L 297.500 101.500 297.500 91.583 C 297.500 86.129,297.435 81.667,297.357 81.667 C 297.278 81.667,297.171 81.307,297.119 80.868 C 296.701 77.342,292.910 75.381,288.333 76.324 C 287.829 76.428,287.323 76.523,287.208 76.534 C 287.094 76.546,287.000 76.610,287.000 76.676 C 287.000 76.742,286.737 76.845,286.417 76.906 C 286.096 76.966,285.833 77.079,285.833 77.156 C 285.833 77.234,285.665 77.340,285.458 77.392 C 285.039 77.497,284.630 77.791,283.619 78.708 C 282.926 79.339,282.667 79.466,282.667 79.175 C 282.667 78.906,281.121 77.393,280.375 76.933 C 279.985 76.692,279.667 76.530,279.667 76.573 C 279.667 76.615,279.407 76.541,279.089 76.408 C 278.429 76.132,274.815 76.096,273.833 76.355 M311.500 76.355 C 311.179 76.439,310.825 76.530,310.713 76.555 C 310.601 76.581,310.457 76.654,310.394 76.717 C 310.330 76.781,310.152 76.833,309.998 76.833 C 309.844 76.833,309.545 76.983,309.333 77.167 C 309.122 77.350,308.843 77.500,308.713 77.500 C 308.399 77.500,305.906 80.008,305.759 80.471 C 305.696 80.670,305.579 80.833,305.500 80.833 C 305.420 80.833,305.260 81.096,305.144 81.417 C 305.028 81.737,304.885 82.000,304.826 82.000 C 304.768 82.000,304.624 82.431,304.508 82.958 C 304.392 83.485,304.230 83.999,304.148 84.100 C 304.067 84.202,303.951 84.858,303.892 85.559 C 303.833 86.260,303.724 86.833,303.650 86.833 C 303.576 86.833,303.521 87.808,303.527 89.000 C 303.533 90.192,303.593 91.167,303.661 91.167 C 303.729 91.167,303.833 91.744,303.893 92.449 C 303.952 93.154,304.064 93.773,304.141 93.824 C 304.218 93.875,304.329 94.162,304.387 94.461 C 304.445 94.761,304.682 95.419,304.913 95.924 C 305.144 96.430,305.333 96.916,305.333 97.005 C 305.333 97.094,305.408 97.167,305.500 97.167 C 305.592 97.167,305.667 97.260,305.667 97.375 C 305.667 97.720,307.386 99.667,307.691 99.667 C 307.780 99.667,307.816 99.726,307.772 99.798 C 307.727 99.870,307.929 100.033,308.220 100.160 C 308.512 100.286,308.787 100.437,308.833 100.494 C 309.050 100.765,310.223 101.329,310.787 101.432 C 311.133 101.496,311.470 101.631,311.536 101.732 C 311.713 102.007,317.249 101.985,317.525 101.708 C 317.640 101.594,317.835 101.500,317.959 101.500 C 318.199 101.500,319.582 100.931,320.000 100.660 C 320.137 100.571,320.491 100.374,320.785 100.222 C 321.079 100.069,321.294 99.901,321.263 99.848 C 321.232 99.794,321.495 99.525,321.847 99.250 C 322.200 98.975,322.584 98.544,322.702 98.292 C 322.819 98.040,322.962 97.833,323.020 97.833 C 323.079 97.833,323.219 97.609,323.332 97.335 C 323.446 97.062,323.607 96.880,323.690 96.931 C 323.773 96.983,323.828 96.963,323.811 96.887 C 323.793 96.812,323.867 96.539,323.973 96.281 C 324.080 96.023,324.167 95.704,324.167 95.572 C 324.167 95.441,324.233 95.333,324.315 95.333 C 324.396 95.333,324.516 95.052,324.580 94.709 C 324.645 94.365,324.763 94.044,324.843 93.994 C 325.481 93.600,325.452 85.172,324.809 84.083 C 324.755 83.992,324.660 83.635,324.598 83.292 C 324.536 82.948,324.422 82.667,324.344 82.667 C 324.267 82.667,324.155 82.407,324.095 82.089 C 324.036 81.771,323.896 81.415,323.785 81.297 C 323.674 81.179,323.471 80.858,323.333 80.583 C 323.196 80.308,322.877 79.898,322.625 79.671 C 322.373 79.445,322.167 79.163,322.167 79.046 C 322.167 78.929,322.098 78.833,322.014 78.833 C 321.931 78.833,321.602 78.581,321.285 78.273 C 320.968 77.965,320.474 77.609,320.188 77.483 C 319.901 77.356,319.667 77.199,319.667 77.134 C 319.667 77.068,319.404 76.966,319.083 76.906 C 318.762 76.845,318.500 76.730,318.500 76.648 C 318.500 76.567,318.444 76.514,318.375 76.532 C 318.306 76.549,317.853 76.474,317.367 76.365 C 316.344 76.135,312.358 76.128,311.500 76.355 M337.083 76.282 C 336.808 76.318,336.471 76.387,336.333 76.435 C 336.196 76.482,336.067 76.521,336.046 76.520 C 335.957 76.515,333.869 77.627,333.417 77.920 C 332.716 78.374,331.548 79.585,331.419 79.992 C 331.360 80.180,331.228 80.333,331.128 80.333 C 331.027 80.333,330.992 80.381,331.050 80.439 C 331.108 80.496,331.045 80.701,330.911 80.892 C 330.777 81.084,330.667 81.368,330.667 81.523 C 330.667 81.678,330.590 81.831,330.497 81.862 C 330.185 81.966,329.956 84.805,330.156 86.083 C 330.257 86.725,330.350 87.344,330.364 87.458 C 330.378 87.573,330.445 87.667,330.515 87.667 C 330.584 87.667,330.690 87.892,330.750 88.167 C 330.810 88.442,330.941 88.667,331.041 88.667 C 331.141 88.667,331.173 88.716,331.113 88.776 C 331.053 88.836,331.228 89.099,331.502 89.360 C 331.776 89.622,332.000 89.881,332.000 89.936 C 332.000 90.118,332.746 90.828,332.941 90.830 C 333.045 90.832,333.174 90.946,333.227 91.083 C 333.281 91.224,333.231 91.333,333.112 91.333 C 332.906 91.333,332.613 91.532,331.700 92.291 C 331.453 92.498,331.194 92.666,331.125 92.666 C 331.056 92.667,331.000 92.779,331.000 92.917 C 331.000 93.054,330.925 93.167,330.833 93.167 C 330.742 93.167,330.667 93.252,330.667 93.357 C 330.667 93.461,330.540 93.639,330.386 93.752 C 330.016 94.023,329.866 96.669,330.178 97.417 C 330.293 97.692,330.375 97.973,330.360 98.042 C 330.345 98.110,330.390 98.167,330.458 98.167 C 330.527 98.167,330.801 98.354,331.068 98.584 C 331.334 98.813,331.649 99.000,331.768 99.000 C 331.886 99.000,332.057 99.131,332.147 99.292 C 332.236 99.452,332.353 99.565,332.405 99.542 C 332.692 99.416,332.696 99.531,332.412 99.729 C 332.231 99.854,331.835 100.012,331.530 100.078 C 331.226 100.144,330.937 100.304,330.888 100.432 C 330.838 100.561,330.712 100.667,330.607 100.667 C 329.514 100.667,328.636 104.418,329.323 106.148 C 329.812 107.377,332.183 109.549,332.693 109.234 C 332.770 109.186,332.833 109.218,332.833 109.305 C 332.833 109.392,333.115 109.515,333.458 109.580 C 333.802 109.644,334.158 109.758,334.250 109.834 C 335.045 110.489,344.580 110.490,345.417 109.835 C 345.508 109.763,345.902 109.652,346.291 109.588 C 346.680 109.524,347.041 109.401,347.094 109.316 C 347.146 109.231,347.428 109.048,347.720 108.910 C 349.260 108.178,350.195 107.321,351.170 105.750 C 351.557 105.126,351.583 104.938,351.583 102.833 C 351.583 100.017,351.412 99.607,349.589 98.041 C 349.455 97.926,349.137 97.740,348.881 97.628 C 348.626 97.515,348.379 97.372,348.333 97.310 C 348.287 97.248,347.762 97.099,347.166 96.979 C 346.571 96.859,346.046 96.721,346.000 96.672 C 345.846 96.508,345.431 96.469,341.917 96.288 C 339.992 96.189,338.379 96.057,338.333 95.996 C 338.287 95.935,337.893 95.837,337.457 95.779 C 336.151 95.604,335.548 95.026,335.842 94.231 C 336.067 93.622,337.191 93.372,340.138 93.275 C 341.635 93.226,342.948 93.119,343.055 93.037 C 343.162 92.955,343.681 92.796,344.208 92.682 C 344.735 92.569,345.167 92.422,345.167 92.355 C 345.167 92.288,345.437 92.136,345.767 92.017 C 346.234 91.848,348.373 89.986,348.323 89.792 C 348.295 89.683,348.574 89.073,348.687 88.996 C 348.757 88.948,348.903 88.535,349.010 88.079 C 349.118 87.623,349.272 87.120,349.353 86.961 C 349.539 86.594,349.547 83.167,349.362 83.167 C 349.286 83.167,349.136 82.786,349.029 82.322 C 348.922 81.857,348.716 81.359,348.573 81.216 C 348.145 80.787,348.519 80.643,350.315 80.544 L 352.000 80.452 352.000 78.288 L 352.000 76.124 350.178 76.199 C 349.029 76.246,348.259 76.354,348.094 76.491 C 347.951 76.610,347.833 76.655,347.833 76.592 C 347.833 76.528,347.715 76.594,347.571 76.738 C 347.427 76.882,347.216 77.000,347.103 77.000 C 346.989 77.000,346.680 77.225,346.417 77.500 C 346.153 77.775,345.864 78.000,345.774 78.000 C 345.685 78.000,345.661 77.950,345.723 77.888 C 345.841 77.771,344.064 76.843,343.708 76.837 C 343.594 76.835,343.500 76.771,343.500 76.694 C 343.500 76.618,343.406 76.548,343.292 76.538 C 343.177 76.528,342.783 76.443,342.417 76.348 C 341.787 76.184,338.168 76.140,337.083 76.282 M363.417 76.346 C 363.050 76.434,362.514 76.618,362.225 76.754 C 361.936 76.889,361.617 77.000,361.516 77.000 C 361.416 77.000,361.333 77.061,361.333 77.136 C 361.333 77.210,361.071 77.374,360.750 77.500 C 360.429 77.626,360.167 77.788,360.167 77.860 C 360.167 77.932,359.944 78.107,359.672 78.247 C 359.135 78.525,357.537 80.585,357.181 81.458 C 357.059 81.756,356.903 82.000,356.834 82.000 C 356.765 82.000,356.608 82.450,356.486 83.000 C 356.364 83.550,356.218 84.000,356.160 84.000 C 356.103 84.000,356.050 84.094,356.042 84.208 C 356.035 84.323,355.950 84.979,355.853 85.667 C 355.529 87.970,355.756 94.000,356.167 94.000 C 356.229 94.000,356.379 94.412,356.500 94.917 C 356.621 95.421,356.771 95.833,356.834 95.833 C 356.896 95.833,357.037 96.133,357.147 96.500 C 357.257 96.867,357.419 97.167,357.507 97.167 C 357.595 97.167,357.667 97.282,357.667 97.422 C 357.667 97.562,357.776 97.719,357.910 97.771 C 358.044 97.822,358.196 97.995,358.246 98.155 C 358.559 99.141,361.931 101.492,363.042 101.498 C 363.202 101.499,363.333 101.567,363.333 101.650 C 363.333 101.835,363.949 101.884,366.458 101.900 C 368.539 101.912,369.833 101.816,369.833 101.648 C 369.833 101.591,370.152 101.501,370.542 101.448 C 371.200 101.357,372.076 101.030,372.667 100.653 C 372.804 100.565,373.160 100.381,373.458 100.244 C 373.756 100.108,374.000 99.922,374.000 99.831 C 374.000 99.741,374.089 99.667,374.197 99.667 C 374.432 99.667,376.203 97.887,376.476 97.378 C 376.795 96.781,376.710 96.351,376.250 96.235 C 376.021 96.178,375.833 96.073,375.833 96.002 C 375.833 95.932,375.608 95.781,375.333 95.667 C 375.058 95.553,374.833 95.395,374.833 95.316 C 374.833 95.237,374.651 95.127,374.429 95.071 C 374.206 95.016,373.984 94.864,373.934 94.735 C 373.884 94.606,373.739 94.500,373.611 94.500 C 373.483 94.500,373.178 94.343,372.933 94.150 C 372.546 93.845,371.410 93.799,371.711 94.100 C 371.830 94.218,370.094 95.833,369.849 95.833 C 369.738 95.833,369.684 95.893,369.729 95.967 C 369.821 96.115,368.372 96.597,368.042 96.528 C 367.927 96.505,367.833 96.564,367.833 96.659 C 367.833 97.721,363.630 96.031,363.244 94.814 C 363.189 94.641,363.078 94.500,362.996 94.500 C 362.915 94.500,362.799 94.237,362.739 93.917 C 362.679 93.596,362.573 93.333,362.504 93.333 C 362.341 93.333,362.000 91.624,362.000 90.806 L 362.000 90.167 369.353 90.167 L 376.705 90.167 376.618 87.375 C 376.531 84.582,376.411 83.490,376.174 83.333 C 376.105 83.287,375.996 82.969,375.933 82.625 C 375.870 82.281,375.762 82.000,375.693 82.000 C 375.623 82.000,375.469 81.729,375.349 81.398 C 375.230 81.067,375.008 80.648,374.858 80.467 C 374.707 80.287,374.452 79.983,374.292 79.794 C 374.131 79.604,374.000 79.373,374.000 79.281 C 374.000 79.053,372.802 78.000,372.542 78.000 C 372.427 78.000,372.333 77.934,372.333 77.854 C 372.333 77.773,372.109 77.614,371.835 77.501 C 371.562 77.387,371.373 77.237,371.417 77.166 C 371.461 77.095,371.235 76.987,370.915 76.927 C 370.595 76.867,370.333 76.734,370.333 76.631 C 370.333 76.529,370.284 76.494,370.224 76.554 C 370.163 76.614,370.002 76.571,369.865 76.457 C 369.553 76.198,364.394 76.109,363.417 76.346 M248.833 89.008 L 248.833 101.500 252.000 101.500 L 255.167 101.500 255.167 89.008 L 255.167 76.516 252.000 76.516 L 248.833 76.516 248.833 89.008 M188.667 81.000 C 188.667 81.092,188.813 81.167,188.992 81.167 C 189.404 81.167,190.167 81.509,190.167 81.693 C 190.167 81.770,190.260 81.836,190.375 81.838 C 190.737 81.847,191.633 83.217,191.843 84.083 C 191.954 84.542,192.110 84.988,192.189 85.075 C 192.837 85.787,192.566 85.833,187.750 85.833 C 183.106 85.833,182.817 85.795,183.307 85.242 C 183.384 85.155,183.539 84.652,183.652 84.125 C 183.765 83.598,183.927 83.167,184.012 83.167 C 184.097 83.167,184.167 83.065,184.167 82.940 C 184.167 82.480,185.293 81.509,186.069 81.302 C 186.489 81.190,186.833 81.038,186.833 80.965 C 186.833 80.893,187.246 80.833,187.750 80.833 C 188.254 80.833,188.667 80.908,188.667 81.000 M341.579 81.312 C 343.782 82.503,344.250 85.546,342.502 87.312 C 341.249 88.578,338.638 88.763,337.464 87.669 C 337.266 87.484,337.030 87.333,336.941 87.333 C 336.851 87.333,336.822 87.290,336.875 87.236 C 336.928 87.183,336.847 87.001,336.694 86.831 C 335.943 86.000,335.917 85.926,335.921 84.666 C 335.926 82.992,336.959 81.499,338.292 81.236 C 338.590 81.178,338.833 81.063,338.833 80.981 C 338.833 80.633,340.749 80.863,341.579 81.312 M367.667 80.979 C 367.667 81.059,367.875 81.167,368.130 81.218 C 368.861 81.364,370.333 82.940,370.333 83.577 C 370.333 83.703,370.410 83.831,370.503 83.862 C 370.596 83.893,370.719 84.312,370.776 84.793 L 370.880 85.667 366.418 85.667 L 361.957 85.667 362.068 84.827 C 362.288 83.175,363.347 81.659,364.528 81.305 C 364.879 81.200,365.167 81.051,365.167 80.974 C 365.167 80.896,365.729 80.833,366.417 80.833 C 367.104 80.833,367.667 80.899,367.667 80.979 M316.458 81.714 C 316.848 81.904,317.167 82.140,317.167 82.239 C 317.167 82.339,317.305 82.506,317.475 82.612 C 317.855 82.850,318.500 84.185,318.500 84.734 C 318.500 84.957,318.594 85.170,318.708 85.208 C 319.070 85.329,318.992 92.606,318.623 93.250 C 318.465 93.525,318.335 93.870,318.334 94.016 C 318.334 94.163,318.183 94.455,318.000 94.667 C 317.817 94.878,317.667 95.104,317.667 95.168 C 317.667 95.525,316.388 96.500,315.919 96.500 C 315.780 96.500,315.667 96.575,315.667 96.667 C 315.667 97.323,312.493 96.578,311.792 95.757 C 310.973 94.798,310.833 94.595,310.833 94.363 C 310.833 94.223,310.727 93.991,310.597 93.846 C 309.819 92.980,309.804 85.720,310.578 84.236 C 310.717 83.969,310.832 83.659,310.832 83.547 C 310.834 83.279,311.743 82.254,312.386 81.796 C 313.351 81.109,315.142 81.073,316.458 81.714 M161.975 81.627 C 162.037 81.726,162.298 81.860,162.557 81.925 C 162.815 81.990,163.066 82.146,163.115 82.271 C 163.163 82.397,163.288 82.502,163.393 82.505 C 163.498 82.508,163.790 82.692,164.042 82.914 L 164.500 83.317 164.500 89.017 L 164.500 94.716 163.925 95.275 C 163.609 95.582,163.303 95.833,163.246 95.833 C 163.189 95.833,163.027 95.950,162.885 96.092 C 162.743 96.234,162.411 96.393,162.147 96.446 C 161.883 96.498,161.667 96.607,161.667 96.688 C 161.667 96.768,161.029 96.833,160.250 96.833 C 159.471 96.833,158.833 96.768,158.833 96.688 C 158.833 96.607,158.604 96.496,158.324 96.440 C 157.719 96.319,156.476 95.138,156.150 94.375 C 156.023 94.077,155.870 93.833,155.811 93.833 C 155.752 93.833,155.651 93.553,155.587 93.210 C 155.522 92.867,155.421 92.510,155.362 92.418 C 155.051 91.930,155.026 85.833,155.336 85.833 C 155.403 85.833,155.505 85.533,155.564 85.167 C 155.623 84.800,155.730 84.500,155.802 84.500 C 155.874 84.500,156.034 84.220,156.158 83.878 C 156.385 83.250,157.469 82.000,157.787 82.000 C 157.882 82.000,158.049 81.892,158.158 81.760 C 158.512 81.334,161.725 81.222,161.975 81.627 M341.417 101.216 C 341.600 101.259,342.144 101.348,342.625 101.413 C 343.106 101.478,343.500 101.603,343.500 101.690 C 343.500 101.777,343.594 101.834,343.708 101.817 C 344.058 101.765,344.968 102.175,345.065 102.428 C 345.115 102.559,345.264 102.667,345.395 102.667 C 346.078 102.667,346.044 103.975,345.343 104.676 C 343.316 106.704,336.294 106.606,335.185 104.535 C 334.763 103.746,335.148 102.284,335.854 101.991 C 336.115 101.883,336.290 101.732,336.243 101.656 C 336.196 101.579,336.422 101.467,336.745 101.407 C 337.069 101.346,337.333 101.239,337.333 101.170 C 337.333 101.038,340.831 101.078,341.417 101.216 " stroke="none" fill="#4c5c64" fill-rule="evenodd"></path><path id="path1" d="M5.168 0.278 C 4.665 0.415,4.215 0.578,4.168 0.642 C 4.122 0.706,3.858 0.899,3.583 1.071 C 2.996 1.440,1.343 3.022,1.337 3.220 C 1.335 3.296,1.240 3.462,1.125 3.589 C -0.081 4.935,-0.000 2.327,-0.000 39.636 C -0.000 57.986,0.040 73.000,0.090 73.000 C 0.139 73.000,0.507 72.663,0.908 72.250 C 1.309 71.838,1.694 71.500,1.765 71.500 C 1.835 71.500,2.359 71.031,2.929 70.458 C 3.499 69.885,4.154 69.280,4.384 69.113 C 5.327 68.429,11.617 62.004,13.333 59.971 C 13.471 59.808,13.940 59.301,14.375 58.845 C 14.810 58.389,15.167 57.956,15.167 57.882 C 15.167 57.809,15.392 57.537,15.667 57.277 C 15.942 57.017,16.167 56.699,16.167 56.569 C 16.167 56.439,16.241 56.333,16.331 56.333 C 16.421 56.333,16.694 56.033,16.936 55.667 C 17.530 54.769,17.586 54.806,17.833 56.250 C 17.951 56.938,18.102 57.500,18.168 57.500 C 18.235 57.500,18.375 57.894,18.481 58.375 C 18.730 59.515,18.741 59.554,18.865 59.751 C 18.922 59.844,19.022 60.199,19.086 60.541 C 19.151 60.884,19.262 61.128,19.333 61.083 C 19.405 61.039,19.514 61.275,19.577 61.607 C 19.639 61.940,19.835 62.482,20.011 62.811 C 20.188 63.141,20.379 63.656,20.435 63.955 C 20.491 64.255,20.598 64.500,20.673 64.500 C 20.977 64.500,21.227 66.307,21.020 67.000 C 20.910 67.367,20.754 67.667,20.673 67.667 C 20.592 67.667,20.439 67.929,20.333 68.250 C 20.227 68.571,20.072 68.833,19.987 68.833 C 19.903 68.833,19.851 68.890,19.872 68.958 C 19.913 69.093,19.435 70.256,19.170 70.667 C 18.834 71.188,17.667 73.838,17.667 74.080 C 17.667 74.219,17.601 74.333,17.522 74.333 C 17.442 74.333,17.282 74.671,17.167 75.083 C 17.051 75.496,16.899 75.833,16.828 75.833 C 16.758 75.833,16.610 76.208,16.500 76.667 C 16.390 77.125,16.239 77.500,16.165 77.500 C 16.090 77.500,15.979 77.800,15.917 78.166 C 15.855 78.532,15.743 78.869,15.669 78.915 C 15.594 78.961,15.443 79.374,15.333 79.833 C 15.223 80.291,15.073 80.667,14.999 80.667 C 14.924 80.667,14.770 81.192,14.655 81.833 C 14.540 82.475,14.390 83.000,14.321 83.000 C 14.252 83.000,14.145 83.300,14.083 83.666 C 14.022 84.032,13.908 84.371,13.831 84.418 C 13.753 84.466,13.600 85.067,13.489 85.753 C 13.378 86.439,13.234 87.000,13.168 87.000 C 13.102 87.000,12.952 87.694,12.833 88.542 C 12.715 89.390,12.557 90.163,12.482 90.260 C 11.942 90.958,11.959 100.790,12.501 100.972 C 12.592 101.003,12.667 101.168,12.667 101.339 C 12.667 101.757,13.025 102.551,13.288 102.717 C 13.405 102.790,13.503 102.940,13.507 103.050 C 13.515 103.318,14.884 104.312,15.550 104.534 C 15.843 104.632,16.155 104.777,16.242 104.856 C 16.446 105.042,19.833 105.045,19.833 104.860 C 19.833 104.783,20.241 104.628,20.739 104.517 C 21.238 104.405,21.669 104.262,21.698 104.199 C 21.726 104.135,22.181 103.858,22.708 103.583 C 23.235 103.308,23.666 103.041,23.666 102.989 C 23.666 102.938,23.929 102.793,24.250 102.667 C 24.571 102.541,24.833 102.389,24.833 102.329 C 24.833 102.269,25.024 102.133,25.256 102.027 C 25.716 101.818,26.038 101.577,26.465 101.125 C 26.617 100.965,26.812 100.833,26.898 100.833 C 26.985 100.833,27.174 100.718,27.319 100.576 C 27.704 100.201,28.642 99.388,29.493 98.691 C 30.463 97.898,32.167 96.204,32.167 96.033 C 32.167 95.960,32.504 95.578,32.917 95.185 C 33.329 94.792,33.667 94.399,33.667 94.313 C 33.667 94.226,33.892 93.935,34.167 93.667 C 34.442 93.398,34.667 93.128,34.667 93.066 C 34.667 93.005,34.835 92.783,35.042 92.574 C 35.601 92.004,36.167 91.221,36.167 91.015 C 36.167 90.915,36.244 90.833,36.337 90.833 C 36.431 90.833,36.580 90.646,36.667 90.417 C 36.754 90.188,36.902 90.000,36.996 90.000 C 37.090 90.000,37.167 89.913,37.167 89.807 C 37.167 89.701,37.354 89.369,37.583 89.069 C 37.812 88.768,38.000 88.442,38.000 88.344 C 38.000 88.247,38.061 88.167,38.136 88.167 C 38.210 88.167,38.400 87.923,38.556 87.625 C 38.712 87.327,39.024 86.783,39.250 86.417 C 39.475 86.050,39.705 85.624,39.762 85.470 C 39.819 85.316,39.964 85.152,40.084 85.106 C 40.204 85.060,40.351 84.798,40.412 84.523 C 40.472 84.248,40.624 83.938,40.750 83.833 C 40.876 83.729,41.027 83.424,41.086 83.155 C 41.145 82.886,41.253 82.667,41.326 82.667 C 41.400 82.667,41.558 82.423,41.679 82.125 C 41.799 81.827,41.948 81.546,42.010 81.500 C 42.171 81.380,43.000 79.588,43.000 79.359 C 43.000 79.253,43.065 79.167,43.145 79.167 C 43.225 79.167,43.385 78.829,43.500 78.417 C 43.615 78.004,43.765 77.667,43.833 77.667 C 43.901 77.667,44.051 77.329,44.167 76.917 C 44.282 76.504,44.442 76.167,44.522 76.167 C 44.601 76.167,44.667 76.084,44.667 75.984 C 44.667 75.799,44.777 75.532,45.571 73.794 C 45.811 73.269,46.053 72.612,46.108 72.336 C 46.163 72.060,46.262 71.833,46.328 71.833 C 46.393 71.833,46.539 71.421,46.652 70.917 C 46.765 70.412,46.919 70.000,46.993 70.000 C 47.068 70.000,47.178 69.741,47.238 69.424 C 47.297 69.107,47.455 68.638,47.589 68.382 C 47.722 68.126,47.878 67.673,47.934 67.375 C 47.991 67.077,48.096 66.833,48.167 66.833 C 48.239 66.833,48.394 66.346,48.512 65.750 C 48.631 65.154,48.781 64.667,48.845 64.667 C 48.910 64.667,49.054 64.179,49.167 63.583 C 49.279 62.987,49.423 62.500,49.486 62.500 C 49.573 62.500,49.879 61.372,50.073 60.333 C 50.081 60.288,50.135 60.175,50.191 60.083 C 50.248 59.992,50.345 59.654,50.407 59.333 C 50.469 59.012,50.590 58.600,50.676 58.417 C 50.761 58.233,50.941 57.596,51.074 57.000 C 51.601 54.638,51.735 54.214,51.798 54.708 C 51.829 54.960,51.916 55.167,51.990 55.167 C 52.063 55.167,52.173 55.539,52.233 55.993 C 52.294 56.448,52.409 56.861,52.490 56.911 C 52.571 56.961,52.689 57.320,52.752 57.709 C 52.814 58.098,52.964 58.572,53.084 58.762 C 53.204 58.952,53.396 59.421,53.511 59.804 C 53.626 60.187,53.773 60.500,53.838 60.500 C 53.903 60.500,54.051 60.837,54.167 61.250 C 54.282 61.663,54.436 62.000,54.508 62.000 C 54.581 62.000,54.691 62.230,54.752 62.511 C 54.814 62.792,54.970 63.224,55.098 63.470 C 55.396 64.042,55.388 65.557,55.081 66.417 C 54.950 66.783,54.794 67.402,54.736 67.792 C 54.677 68.181,54.572 68.500,54.501 68.500 C 54.431 68.500,54.281 69.100,54.167 69.833 C 54.053 70.567,53.903 71.167,53.833 71.167 C 53.764 71.167,53.614 71.767,53.500 72.500 C 53.386 73.233,53.242 73.833,53.179 73.833 C 53.117 73.833,52.966 74.396,52.844 75.083 C 52.722 75.771,52.567 76.333,52.499 76.333 C 52.432 76.333,52.327 76.708,52.266 77.167 C 52.205 77.625,52.070 78.000,51.966 78.000 C 51.863 78.000,51.818 78.040,51.866 78.088 C 51.915 78.137,51.808 78.681,51.629 79.297 C 51.450 79.913,51.179 81.054,51.027 81.833 C 50.874 82.612,50.704 83.325,50.647 83.417 C 50.591 83.508,50.449 84.446,50.331 85.500 C 50.214 86.554,50.039 87.468,49.943 87.530 C 49.698 87.689,49.686 95.136,49.930 95.298 C 50.029 95.363,50.208 95.884,50.327 96.455 C 50.446 97.025,50.600 97.458,50.668 97.416 C 50.736 97.374,50.886 97.676,51.001 98.086 C 51.116 98.497,51.257 98.833,51.314 98.833 C 51.372 98.833,51.527 99.077,51.658 99.375 C 51.946 100.024,51.955 100.036,53.367 101.489 C 53.981 102.122,54.638 102.688,54.825 102.747 C 55.013 102.807,55.167 102.923,55.167 103.005 C 55.167 103.086,55.467 103.243,55.833 103.353 C 56.200 103.463,56.500 103.609,56.500 103.678 C 56.500 103.747,56.819 103.857,57.208 103.921 C 57.598 103.985,58.015 104.117,58.136 104.215 C 58.441 104.462,62.557 104.566,63.667 104.355 C 64.171 104.258,65.031 104.098,65.578 103.998 C 66.126 103.899,66.613 103.760,66.662 103.690 C 66.710 103.620,67.198 103.465,67.745 103.345 C 68.292 103.225,68.892 103.030,69.078 102.913 C 69.264 102.795,69.660 102.649,69.958 102.586 C 70.256 102.524,70.500 102.404,70.500 102.320 C 70.500 102.236,70.630 102.167,70.789 102.167 C 71.070 102.167,72.833 101.357,73.000 101.151 C 73.046 101.094,73.365 100.957,73.708 100.845 C 74.052 100.733,74.333 100.578,74.333 100.500 C 74.333 100.423,74.563 100.309,74.845 100.248 C 75.126 100.186,75.395 100.034,75.442 99.911 C 75.489 99.788,75.752 99.638,76.025 99.578 C 76.299 99.518,76.563 99.363,76.612 99.234 C 76.662 99.105,76.766 99.000,76.844 99.000 C 76.968 99.000,77.953 98.400,78.417 98.043 C 78.913 97.660,79.501 97.342,79.505 97.454 C 79.508 97.525,79.587 97.452,79.680 97.292 C 79.773 97.131,79.956 97.000,80.086 97.000 C 80.215 97.000,80.402 96.850,80.500 96.667 C 80.598 96.483,80.754 96.333,80.846 96.333 C 81.076 96.333,82.034 95.648,82.300 95.292 C 82.421 95.131,82.587 95.000,82.671 95.000 C 82.817 95.000,83.252 94.636,84.693 93.308 C 85.056 92.973,85.282 92.654,85.194 92.600 C 85.106 92.546,84.940 92.107,84.826 91.626 C 84.712 91.144,84.567 90.712,84.505 90.667 C 84.443 90.621,84.273 90.133,84.129 89.583 C 83.623 87.664,83.444 87.083,83.334 87.000 C 83.273 86.954,83.124 86.429,83.003 85.833 C 82.882 85.237,82.728 84.675,82.660 84.583 C 82.592 84.492,82.437 83.873,82.315 83.208 C 82.194 82.544,82.043 82.000,81.981 82.000 C 81.919 82.000,81.777 81.362,81.667 80.582 C 81.556 79.803,81.404 79.127,81.329 79.081 C 81.254 79.034,81.141 78.510,81.077 77.915 C 81.013 77.320,80.905 76.833,80.836 76.833 C 80.767 76.833,80.615 75.990,80.498 74.958 C 80.380 73.927,80.226 73.045,80.156 72.999 C 80.085 72.952,79.939 71.827,79.832 70.499 C 79.725 69.170,79.570 67.933,79.488 67.750 C 78.992 66.642,79.013 49.704,79.510 49.528 C 79.596 49.497,79.667 49.206,79.667 48.880 C 79.667 47.908,80.053 44.423,80.171 44.333 C 80.231 44.288,80.378 43.444,80.498 42.458 C 80.618 41.473,80.776 40.667,80.850 40.667 C 80.923 40.667,81.034 40.217,81.097 39.667 C 81.159 39.117,81.266 38.667,81.334 38.667 C 81.403 38.667,81.553 38.067,81.667 37.333 C 81.781 36.600,81.925 36.000,81.987 36.000 C 82.049 36.000,82.200 35.437,82.322 34.750 C 82.445 34.063,82.603 33.500,82.674 33.500 C 82.745 33.500,82.892 32.975,83.000 32.333 C 83.108 31.692,83.258 31.167,83.334 31.167 C 83.409 31.167,83.521 30.867,83.583 30.500 C 83.645 30.133,83.752 29.833,83.821 29.833 C 83.890 29.833,84.039 29.421,84.152 28.917 C 84.265 28.413,84.419 28.000,84.493 28.000 C 84.568 28.000,84.682 27.719,84.747 27.375 C 84.811 27.031,85.001 26.447,85.170 26.078 C 85.338 25.708,85.531 25.183,85.599 24.913 C 85.667 24.642,85.823 24.320,85.945 24.198 C 86.067 24.076,86.167 23.885,86.167 23.773 C 86.167 23.662,86.317 23.276,86.500 22.917 C 86.683 22.557,86.833 22.166,86.833 22.048 C 86.833 21.930,86.892 21.833,86.964 21.833 C 87.035 21.833,87.194 21.496,87.315 21.083 C 87.437 20.671,87.592 20.333,87.659 20.333 C 87.726 20.333,87.870 20.033,87.980 19.667 C 88.090 19.300,88.246 19.000,88.327 19.000 C 88.407 19.000,88.523 18.775,88.583 18.500 C 88.644 18.225,88.747 18.000,88.813 18.000 C 88.879 18.000,89.034 17.719,89.157 17.375 C 89.280 17.031,89.426 16.712,89.482 16.667 C 89.538 16.621,89.846 16.058,90.167 15.417 C 90.487 14.775,90.844 14.190,90.958 14.117 C 91.073 14.043,91.167 13.907,91.167 13.813 C 91.167 13.658,92.392 11.488,92.708 11.083 C 92.964 10.755,93.667 9.650,93.667 9.576 C 93.667 9.507,93.824 9.322,94.591 8.486 C 94.724 8.341,94.833 8.164,94.833 8.093 C 94.833 7.983,95.090 7.630,95.836 6.715 C 95.926 6.605,96.000 6.463,96.000 6.401 C 96.000 6.339,96.169 6.118,96.375 5.910 C 96.769 5.512,96.797 5.477,97.567 4.417 C 98.056 3.744,98.150 3.634,99.287 2.401 C 100.601 0.978,101.167 0.301,101.167 0.153 C 101.167 -0.137,6.244 -0.013,5.168 0.278 M119.917 0.366 C 119.550 0.466,119.212 0.601,119.167 0.665 C 119.121 0.729,118.890 0.829,118.654 0.887 C 118.418 0.945,117.608 1.350,116.855 1.788 C 116.101 2.225,115.300 2.681,115.076 2.801 C 114.851 2.920,114.667 3.089,114.667 3.176 C 114.667 3.262,114.568 3.333,114.448 3.333 C 114.328 3.333,114.069 3.483,113.872 3.667 C 113.675 3.850,113.463 4.000,113.401 4.000 C 113.339 4.000,113.118 4.169,112.910 4.375 C 112.702 4.581,112.429 4.825,112.304 4.917 C 111.003 5.871,106.844 9.905,105.355 11.658 C 104.931 12.157,104.358 12.806,104.083 13.099 C 103.808 13.392,103.433 13.840,103.250 14.094 C 102.616 14.974,101.416 16.417,101.208 16.550 C 101.094 16.623,101.000 16.755,101.000 16.842 C 101.000 16.929,100.869 17.145,100.708 17.321 C 100.170 17.914,100.000 18.152,99.806 18.577 C 99.700 18.810,99.548 19.000,99.469 19.000 C 99.390 19.000,99.254 19.188,99.167 19.417 C 99.080 19.646,98.931 19.833,98.837 19.833 C 98.744 19.833,98.667 19.913,98.667 20.011 C 98.667 20.109,98.479 20.435,98.250 20.735 C 98.021 21.036,97.833 21.368,97.833 21.474 C 97.833 21.580,97.777 21.668,97.708 21.670 C 97.640 21.672,97.358 22.053,97.083 22.517 C 96.808 22.981,96.507 23.449,96.415 23.556 C 96.102 23.916,95.658 24.667,95.758 24.667 C 95.813 24.667,95.758 24.777,95.637 24.911 C 95.221 25.372,94.993 25.660,95.008 25.705 C 95.055 25.844,94.653 26.667,94.538 26.667 C 94.462 26.667,94.300 26.948,94.177 27.292 C 94.054 27.635,93.898 27.954,93.830 28.000 C 93.637 28.130,92.167 31.029,92.167 31.278 C 92.167 31.400,92.107 31.500,92.033 31.500 C 91.960 31.500,91.800 31.781,91.677 32.125 C 91.554 32.469,91.407 32.788,91.352 32.834 C 91.135 33.013,90.536 34.277,90.424 34.792 C 90.360 35.090,90.250 35.333,90.180 35.333 C 90.110 35.333,89.953 35.652,89.830 36.042 C 89.707 36.431,89.553 36.825,89.487 36.917 C 89.422 37.008,89.273 37.402,89.157 37.792 C 89.042 38.181,88.884 38.500,88.807 38.500 C 88.730 38.500,88.667 38.617,88.667 38.759 C 88.667 38.902,88.525 39.333,88.352 39.717 C 88.179 40.102,87.986 40.660,87.922 40.958 C 87.859 41.256,87.750 41.500,87.681 41.500 C 87.612 41.500,87.546 41.594,87.535 41.708 C 87.486 42.219,87.099 43.500,86.995 43.500 C 86.931 43.500,86.779 43.969,86.658 44.542 C 86.536 45.115,86.339 45.771,86.219 46.000 C 86.100 46.229,86.002 46.577,86.001 46.773 C 86.000 46.968,85.891 47.338,85.758 47.595 C 85.625 47.851,85.467 48.460,85.406 48.947 C 85.345 49.434,85.238 49.833,85.168 49.833 C 85.098 49.833,84.947 50.435,84.833 51.170 C 84.719 51.905,84.568 52.541,84.498 52.584 C 84.428 52.628,84.275 53.432,84.157 54.373 C 84.039 55.314,83.892 56.121,83.829 56.167 C 83.712 56.253,83.321 58.965,83.275 60.000 C 83.261 60.321,83.195 60.668,83.128 60.771 C 83.061 60.875,82.961 62.262,82.906 63.855 C 82.851 65.447,82.768 66.862,82.723 67.000 C 82.602 67.365,82.566 70.667,82.682 70.667 C 82.737 70.667,82.828 71.907,82.885 73.423 C 82.942 74.939,83.046 76.271,83.115 76.382 C 83.185 76.493,83.254 76.808,83.268 77.083 C 83.309 77.898,83.679 80.057,83.839 80.417 C 83.920 80.600,84.076 81.237,84.184 81.833 C 84.292 82.429,84.437 82.992,84.505 83.083 C 84.574 83.175,84.725 83.681,84.841 84.208 C 84.958 84.735,85.108 85.167,85.175 85.167 C 85.242 85.167,85.348 85.440,85.410 85.774 C 85.473 86.109,85.624 86.540,85.746 86.733 C 85.868 86.926,86.018 87.327,86.080 87.625 C 86.142 87.923,86.259 88.167,86.339 88.167 C 86.419 88.167,86.534 88.426,86.593 88.744 C 86.653 89.062,86.806 89.408,86.934 89.514 C 87.062 89.621,87.167 89.808,87.167 89.931 C 87.167 90.455,87.785 90.512,88.352 90.040 C 89.610 88.992,96.000 82.417,96.000 82.170 C 96.000 82.086,96.094 81.957,96.209 81.883 C 96.408 81.756,96.811 81.294,97.917 79.925 C 98.192 79.584,98.604 79.091,98.833 78.829 C 99.347 78.240,99.432 78.131,100.225 77.042 C 100.575 76.560,100.930 76.167,101.014 76.167 C 101.098 76.167,101.167 76.058,101.167 75.925 C 101.167 75.792,101.263 75.623,101.381 75.550 C 101.499 75.477,101.964 74.910,102.414 74.292 C 102.863 73.673,103.291 73.167,103.365 73.167 C 103.439 73.167,103.500 73.073,103.500 72.958 C 103.500 72.764,103.992 72.092,104.578 71.486 C 104.718 71.341,104.833 71.166,104.833 71.098 C 104.833 71.030,105.171 70.536,105.583 70.000 C 105.996 69.464,106.333 68.979,106.333 68.922 C 106.333 68.865,106.522 68.616,106.753 68.368 C 106.984 68.120,107.265 67.710,107.377 67.458 C 107.490 67.206,107.640 67.000,107.711 67.000 C 107.783 67.000,107.913 66.813,108.000 66.583 C 108.087 66.354,108.235 66.167,108.329 66.167 C 108.423 66.167,108.500 66.085,108.500 65.986 C 108.500 65.807,109.389 64.462,109.792 64.032 C 109.906 63.910,110.000 63.702,110.000 63.571 C 110.000 63.440,110.063 63.333,110.140 63.333 C 110.217 63.333,110.367 63.143,110.473 62.910 C 110.579 62.678,110.743 62.397,110.839 62.285 C 110.935 62.174,111.346 61.558,111.753 60.917 C 112.161 60.275,112.555 59.675,112.629 59.583 C 112.703 59.492,113.019 58.967,113.329 58.417 C 113.640 57.867,113.937 57.379,113.989 57.333 C 114.160 57.182,114.573 56.467,115.407 54.875 C 115.563 54.577,115.749 54.333,115.819 54.333 C 115.889 54.333,116.046 54.033,116.167 53.667 C 116.288 53.300,116.438 53.000,116.500 53.000 C 116.634 53.000,117.071 52.139,117.029 51.958 C 117.013 51.890,117.067 51.833,117.149 51.833 C 117.230 51.833,117.344 51.646,117.402 51.417 C 117.459 51.188,117.574 51.000,117.657 51.000 C 117.740 51.000,117.894 50.737,118.000 50.417 C 118.106 50.096,118.262 49.833,118.346 49.833 C 118.431 49.833,118.500 49.740,118.500 49.625 C 118.500 49.404,120.005 46.308,120.181 46.167 C 120.238 46.121,120.377 45.802,120.489 45.458 C 120.601 45.115,120.750 44.833,120.820 44.833 C 120.890 44.833,121.037 44.533,121.147 44.167 C 121.257 43.800,121.419 43.500,121.507 43.500 C 121.595 43.500,121.667 43.407,121.667 43.294 C 121.667 43.181,121.847 42.712,122.066 42.252 C 122.986 40.329,123.484 39.214,123.686 38.625 C 123.804 38.281,123.960 38.000,124.033 38.000 C 124.107 38.000,124.167 37.883,124.167 37.741 C 124.167 37.598,124.311 37.164,124.488 36.777 C 124.664 36.389,124.862 35.849,124.927 35.578 C 124.993 35.306,125.101 35.008,125.168 34.917 C 125.235 34.825,125.381 34.450,125.493 34.083 C 125.604 33.717,125.795 33.192,125.917 32.917 C 126.039 32.642,126.191 32.135,126.255 31.792 C 126.318 31.448,126.425 31.167,126.492 31.167 C 126.559 31.167,126.706 30.755,126.818 30.253 C 126.931 29.750,127.093 29.296,127.178 29.243 C 127.263 29.190,127.333 28.964,127.333 28.741 C 127.333 28.517,127.478 27.903,127.655 27.376 C 127.831 26.848,128.028 26.079,128.092 25.667 C 128.155 25.254,128.270 24.877,128.346 24.828 C 128.422 24.780,128.576 24.049,128.689 23.203 C 128.801 22.358,128.938 21.667,128.994 21.667 C 129.049 21.667,129.109 21.480,129.128 21.252 C 129.147 21.025,129.253 20.181,129.364 19.377 C 129.475 18.574,129.553 17.410,129.538 16.792 C 129.522 16.156,129.580 15.667,129.672 15.667 C 129.862 15.667,129.897 12.119,129.708 11.929 C 129.640 11.860,129.575 11.378,129.565 10.860 C 129.543 9.669,129.173 7.110,129.009 7.000 C 128.940 6.954,128.833 6.589,128.770 6.188 C 128.707 5.787,128.508 5.134,128.328 4.738 C 128.148 4.342,128.000 3.945,128.000 3.854 C 128.000 3.764,127.906 3.591,127.792 3.470 C 127.677 3.349,127.478 3.047,127.350 2.798 C 126.241 0.647,122.899 -0.446,119.917 0.366 M129.123 40.125 C 128.984 40.910,128.422 42.912,128.316 43.000 C 128.261 43.046,128.121 43.590,128.005 44.208 C 127.890 44.827,127.739 45.333,127.671 45.333 C 127.602 45.333,127.450 45.783,127.333 46.333 C 127.217 46.883,127.063 47.333,126.992 47.333 C 126.921 47.333,126.812 47.633,126.750 48.000 C 126.688 48.367,126.577 48.667,126.504 48.667 C 126.430 48.667,126.318 48.948,126.253 49.292 C 126.189 49.635,125.991 50.235,125.814 50.625 C 125.637 51.015,125.447 51.558,125.392 51.833 C 125.337 52.108,125.234 52.333,125.162 52.333 C 125.091 52.333,124.943 52.708,124.833 53.167 C 124.723 53.625,124.574 54.000,124.502 54.000 C 124.430 54.000,124.321 54.262,124.261 54.583 C 124.201 54.904,124.090 55.167,124.014 55.167 C 123.939 55.167,123.782 55.504,123.667 55.917 C 123.551 56.329,123.400 56.667,123.330 56.667 C 123.261 56.667,123.155 56.927,123.095 57.245 C 123.036 57.563,122.893 57.919,122.779 58.036 C 122.665 58.154,122.472 58.587,122.351 59.000 C 122.229 59.413,122.075 59.788,122.009 59.833 C 121.846 59.945,120.333 63.059,120.333 63.283 C 120.333 63.380,120.226 63.549,120.094 63.658 C 119.962 63.767,119.806 64.076,119.747 64.345 C 119.688 64.614,119.585 64.833,119.517 64.833 C 119.449 64.833,119.176 65.321,118.910 65.917 C 118.645 66.512,118.374 67.000,118.310 67.000 C 118.246 67.000,118.144 67.225,118.084 67.499 C 118.023 67.773,117.873 68.055,117.749 68.124 C 117.625 68.193,117.515 68.305,117.504 68.372 C 117.444 68.745,117.117 69.500,117.015 69.500 C 116.949 69.500,116.793 69.762,116.667 70.083 C 116.541 70.404,116.383 70.667,116.315 70.667 C 116.248 70.667,116.144 70.892,116.083 71.167 C 116.023 71.442,115.901 71.667,115.811 71.667 C 115.722 71.667,115.571 71.892,115.475 72.167 C 115.379 72.442,115.247 72.667,115.181 72.667 C 115.116 72.667,114.959 72.929,114.833 73.250 C 114.707 73.571,114.552 73.833,114.488 73.833 C 114.424 73.833,114.328 73.965,114.274 74.125 C 114.145 74.507,113.548 75.530,113.381 75.653 C 113.309 75.706,113.122 76.012,112.965 76.333 C 112.518 77.249,112.102 77.905,111.875 78.050 C 111.760 78.123,111.667 78.294,111.667 78.430 C 111.667 78.566,111.561 78.718,111.432 78.767 C 111.302 78.817,111.151 79.040,111.095 79.262 C 111.039 79.485,110.929 79.667,110.850 79.667 C 110.772 79.667,110.614 79.892,110.500 80.167 C 110.386 80.442,110.223 80.667,110.138 80.667 C 110.052 80.667,109.904 80.892,109.808 81.167 C 109.712 81.442,109.571 81.667,109.495 81.667 C 109.418 81.667,109.310 81.810,109.255 81.985 C 109.199 82.160,108.935 82.553,108.667 82.860 C 108.399 83.166,108.083 83.602,107.965 83.828 C 107.847 84.055,107.651 84.355,107.530 84.495 C 106.941 85.176,106.500 85.761,106.500 85.862 C 106.500 85.924,106.294 86.191,106.042 86.455 C 105.377 87.153,105.000 87.648,105.000 87.826 C 105.000 87.911,104.862 88.079,104.693 88.199 C 104.524 88.319,104.297 88.585,104.188 88.790 C 104.006 89.132,103.785 89.403,102.708 90.599 C 102.502 90.828,102.333 91.083,102.333 91.166 C 102.333 91.249,102.235 91.377,102.116 91.450 C 101.996 91.523,101.677 91.881,101.407 92.246 C 101.138 92.610,100.673 93.135,100.375 93.411 C 100.077 93.688,99.833 93.978,99.833 94.055 C 99.833 94.132,99.421 94.605,98.917 95.105 C 98.412 95.605,98.000 96.069,98.000 96.137 C 98.000 96.204,97.869 96.379,97.708 96.525 C 97.548 96.671,96.942 97.288,96.361 97.895 C 95.780 98.503,95.232 99.000,95.143 99.000 C 95.053 99.000,95.022 99.067,95.073 99.149 C 95.123 99.231,95.053 99.341,94.916 99.394 C 94.286 99.636,94.891 100.716,95.781 100.939 C 95.993 100.993,96.167 101.097,96.167 101.171 C 96.167 101.246,96.392 101.356,96.667 101.417 C 96.942 101.477,97.167 101.593,97.167 101.673 C 97.167 101.754,97.467 101.910,97.833 102.020 C 98.200 102.130,98.500 102.274,98.500 102.341 C 98.500 102.408,98.781 102.515,99.125 102.579 C 99.469 102.642,99.975 102.796,100.250 102.920 C 100.936 103.229,101.993 103.498,102.528 103.499 C 102.772 103.500,102.997 103.573,103.028 103.663 C 103.058 103.752,103.740 103.876,104.542 103.937 C 105.344 103.999,106.000 104.107,106.000 104.177 C 106.000 104.247,107.237 104.314,108.750 104.325 C 110.264 104.337,111.500 104.279,111.500 104.198 C 111.500 104.116,112.228 103.998,113.119 103.935 C 114.009 103.873,114.778 103.761,114.827 103.688 C 114.876 103.614,115.610 103.456,116.458 103.336 C 117.306 103.216,118.000 103.063,118.000 102.994 C 118.000 102.926,118.281 102.820,118.625 102.759 C 119.450 102.611,121.309 102.027,121.833 101.750 C 122.063 101.629,122.531 101.478,122.874 101.414 C 123.216 101.349,123.460 101.237,123.415 101.164 C 123.370 101.091,123.708 100.935,124.166 100.817 C 124.625 100.700,125.000 100.555,125.000 100.495 C 125.000 100.435,125.300 100.296,125.667 100.186 C 126.033 100.077,126.333 99.931,126.333 99.863 C 126.333 99.795,126.671 99.640,127.083 99.518 C 127.496 99.396,127.833 99.230,127.833 99.148 C 127.833 99.067,127.941 99.000,128.073 99.000 C 128.205 99.000,128.652 98.794,129.068 98.542 L 129.823 98.083 129.828 68.875 C 129.833 40.362,129.826 39.667,129.519 39.667 C 129.307 39.667,129.178 39.816,129.123 40.125 M11.448 72.875 C 11.307 73.081,10.961 73.512,10.679 73.833 C 10.398 74.154,10.167 74.472,10.167 74.539 C 10.167 74.644,9.791 75.079,8.750 76.181 C 8.612 76.326,8.500 76.519,8.500 76.610 C 8.500 76.701,8.313 76.951,8.083 77.167 C 7.854 77.382,7.667 77.622,7.667 77.701 C 7.667 77.779,7.404 78.085,7.083 78.379 C 6.763 78.673,6.500 78.976,6.500 79.052 C 6.500 79.127,6.238 79.437,5.917 79.739 C 5.596 80.042,5.333 80.359,5.333 80.444 C 5.333 80.529,5.033 80.892,4.667 81.250 C 4.300 81.608,4.000 81.959,4.000 82.031 C 4.000 82.102,3.550 82.593,3.001 83.122 C 2.451 83.651,2.001 84.139,2.001 84.207 C 2.000 84.275,1.550 84.788,1.000 85.347 L 0.000 86.362 0.000 104.689 C -0.000 123.563,0.053 125.167,0.676 125.167 C 0.750 125.167,0.864 125.335,0.929 125.542 C 1.061 125.959,3.363 128.333,3.636 128.333 C 3.731 128.333,3.922 128.446,4.060 128.584 C 4.845 129.369,2.211 129.339,65.175 129.293 L 124.083 129.250 125.015 128.778 C 125.528 128.518,126.235 128.049,126.587 127.736 C 126.939 127.423,127.289 127.167,127.364 127.167 C 127.439 127.167,127.500 127.092,127.500 127.001 C 127.500 126.911,127.714 126.629,127.977 126.376 C 128.239 126.124,128.554 125.635,128.677 125.292 C 128.800 124.948,128.954 124.667,129.020 124.667 C 129.210 124.667,129.548 123.152,129.531 122.375 C 129.522 121.985,129.587 121.667,129.674 121.667 C 129.771 121.667,129.833 119.816,129.833 116.911 L 129.833 112.156 129.250 112.196 C 128.929 112.217,128.667 112.286,128.667 112.348 C 128.667 112.410,128.329 112.545,127.917 112.649 C 127.504 112.753,127.167 112.902,127.167 112.981 C 127.167 113.059,126.717 113.212,126.167 113.320 C 125.617 113.428,125.167 113.579,125.167 113.656 C 125.167 113.733,124.829 113.846,124.417 113.908 C 124.004 113.970,123.667 114.088,123.667 114.172 C 123.667 114.255,123.553 114.279,123.415 114.226 C 123.276 114.173,123.059 114.215,122.932 114.320 C 122.806 114.426,122.319 114.557,121.851 114.612 C 121.383 114.668,121.000 114.767,121.000 114.832 C 121.000 114.898,120.306 115.044,119.458 115.157 C 118.610 115.269,117.737 115.449,117.516 115.556 C 116.989 115.812,108.210 115.830,108.036 115.576 C 107.970 115.480,107.243 115.307,106.420 115.191 C 105.597 115.074,104.885 114.918,104.837 114.844 C 104.789 114.769,104.487 114.653,104.167 114.585 C 103.846 114.517,103.508 114.406,103.417 114.337 C 103.325 114.269,103.027 114.159,102.755 114.094 C 102.200 113.961,100.462 113.173,100.333 112.996 C 100.287 112.933,99.975 112.792,99.638 112.682 C 99.302 112.573,98.936 112.374,98.826 112.241 C 98.716 112.109,98.557 112.000,98.473 112.000 C 98.339 112.000,97.396 111.398,97.167 111.166 C 97.121 111.119,96.783 110.860,96.417 110.589 C 95.267 109.740,91.433 105.735,91.127 105.064 C 91.028 104.845,90.889 104.667,90.818 104.667 C 90.747 104.667,90.642 104.517,90.583 104.333 C 90.427 103.842,90.079 103.924,89.350 104.625 C 88.580 105.366,87.579 106.181,87.139 106.425 C 86.965 106.522,86.863 106.640,86.911 106.689 C 86.960 106.738,86.794 106.884,86.543 107.014 C 86.292 107.144,85.890 107.448,85.651 107.690 C 85.411 107.932,85.040 108.223,84.826 108.337 C 84.372 108.580,84.082 108.805,83.701 109.208 C 83.550 109.369,83.328 109.500,83.208 109.500 C 83.088 109.500,82.946 109.612,82.894 109.750 C 82.841 109.888,82.719 110.000,82.623 110.000 C 82.527 110.000,82.216 110.174,81.932 110.387 C 81.649 110.600,81.285 110.823,81.125 110.882 C 80.965 110.941,80.833 111.061,80.833 111.148 C 80.833 111.235,80.615 111.355,80.347 111.414 C 80.080 111.472,79.822 111.621,79.775 111.744 C 79.728 111.868,79.459 112.019,79.178 112.081 C 78.897 112.143,78.667 112.257,78.667 112.335 C 78.667 112.414,78.498 112.529,78.292 112.592 C 78.085 112.655,77.804 112.796,77.667 112.907 C 77.529 113.017,77.098 113.208,76.708 113.330 C 76.319 113.453,76.000 113.611,76.000 113.682 C 76.000 113.753,75.831 113.859,75.625 113.919 C 75.419 113.978,74.932 114.171,74.543 114.347 C 74.155 114.523,73.724 114.667,73.585 114.667 C 73.447 114.667,73.333 114.730,73.333 114.807 C 73.333 114.884,72.790 115.043,72.125 115.161 C 71.460 115.279,70.879 115.434,70.833 115.505 C 70.511 116.006,64.091 115.999,63.195 115.497 C 63.042 115.411,62.598 115.261,62.208 115.164 C 61.819 115.067,61.500 114.915,61.500 114.827 C 61.500 114.739,61.414 114.667,61.308 114.667 C 61.042 114.667,59.333 113.789,59.333 113.652 C 59.333 113.591,59.109 113.448,58.835 113.334 C 58.562 113.221,58.379 113.062,58.429 112.981 C 58.479 112.900,58.409 112.833,58.274 112.833 C 57.920 112.833,54.680 109.436,54.671 109.056 C 54.669 108.949,54.609 108.836,54.538 108.806 C 54.330 108.716,53.333 107.130,53.333 106.888 C 53.333 106.766,53.260 106.667,53.170 106.667 C 53.080 106.667,52.959 106.479,52.902 106.250 C 52.844 106.021,52.742 105.833,52.675 105.833 C 52.608 105.833,52.454 105.533,52.333 105.167 C 52.212 104.800,52.064 104.500,52.005 104.500 C 51.945 104.500,51.800 104.125,51.683 103.667 C 51.565 103.208,51.401 102.833,51.318 102.833 C 51.235 102.833,51.167 102.717,51.167 102.575 C 51.167 102.433,51.018 102.009,50.836 101.633 C 50.654 101.257,50.458 100.698,50.401 100.391 C 50.343 100.084,50.225 99.833,50.138 99.833 C 50.051 99.833,50.023 99.764,50.076 99.678 C 50.129 99.593,50.105 99.481,50.022 99.430 C 49.939 99.379,49.821 99.001,49.760 98.589 C 49.698 98.178,49.581 97.800,49.501 97.750 C 49.420 97.701,49.260 97.099,49.144 96.413 C 49.029 95.728,48.884 95.167,48.821 95.167 C 48.759 95.167,48.613 94.548,48.498 93.792 C 48.383 93.035,48.231 92.342,48.161 92.250 C 48.090 92.158,48.006 91.897,47.974 91.668 C 47.850 90.776,47.430 91.135,46.613 92.831 C 46.172 93.749,45.740 94.500,45.655 94.500 C 45.570 94.500,45.513 94.556,45.529 94.625 C 45.562 94.766,45.143 95.706,44.990 95.833 C 44.935 95.879,44.671 96.310,44.403 96.791 C 44.136 97.273,43.860 97.666,43.792 97.666 C 43.723 97.667,43.667 97.748,43.667 97.848 C 43.667 97.947,43.423 98.377,43.125 98.802 C 42.380 99.865,42.390 99.852,41.919 100.441 C 41.689 100.729,41.500 101.010,41.500 101.066 C 41.500 101.121,41.382 101.298,41.238 101.458 C 40.683 102.075,40.167 102.755,40.167 102.868 C 40.167 102.976,39.954 103.233,38.875 104.432 C 38.669 104.661,38.500 104.916,38.500 104.999 C 38.500 105.082,38.406 105.210,38.291 105.283 C 38.176 105.357,37.864 105.717,37.598 106.083 C 37.333 106.450,36.864 106.982,36.558 107.265 C 36.251 107.548,36.000 107.840,36.000 107.914 C 36.000 108.133,30.111 113.833,29.884 113.833 C 29.810 113.833,29.398 114.143,28.548 114.837 C 28.437 114.927,28.137 115.093,27.881 115.206 C 27.626 115.318,27.379 115.460,27.333 115.522 C 27.230 115.661,25.348 116.527,25.056 116.570 C 24.939 116.587,24.796 116.648,24.739 116.706 C 24.681 116.763,24.529 116.770,24.400 116.721 C 24.272 116.671,24.167 116.714,24.167 116.816 C 24.167 116.937,23.652 117.000,22.667 117.000 C 21.736 117.000,21.167 116.934,21.167 116.826 C 21.167 116.730,21.073 116.671,20.958 116.693 C 20.624 116.759,19.429 116.307,19.283 116.060 C 19.210 115.935,19.072 115.833,18.977 115.833 C 18.452 115.833,16.016 112.752,15.386 111.292 C 15.237 110.948,15.052 110.667,14.975 110.667 C 14.897 110.667,14.831 110.535,14.828 110.375 C 14.825 110.215,14.638 109.708,14.413 109.250 C 14.188 108.792,14.002 108.285,14.002 108.125 C 14.001 107.965,13.926 107.833,13.836 107.833 C 13.745 107.833,13.586 107.496,13.483 107.083 C 13.379 106.671,13.240 106.333,13.173 106.333 C 13.107 106.333,12.961 105.921,12.848 105.417 C 12.735 104.912,12.585 104.500,12.515 104.500 C 12.444 104.500,12.294 104.087,12.181 103.583 C 12.068 103.079,11.915 102.667,11.840 102.667 C 11.765 102.667,11.651 102.386,11.587 102.042 C 11.522 101.699,11.408 101.380,11.333 101.333 C 11.258 101.287,11.099 100.762,10.979 100.166 C 10.859 99.571,10.711 99.046,10.650 99.000 C 10.589 98.954,10.451 98.467,10.344 97.917 C 10.237 97.367,10.078 96.767,9.992 96.583 C 9.448 95.433,8.870 87.667,9.328 87.667 C 9.426 87.667,9.494 87.460,9.479 87.208 C 9.442 86.550,9.859 83.281,10.006 83.083 C 10.074 82.992,10.227 82.110,10.346 81.125 C 10.465 80.140,10.610 79.333,10.668 79.333 C 10.726 79.333,10.872 78.621,10.991 77.750 C 11.111 76.879,11.267 76.167,11.338 76.167 C 11.409 76.167,11.520 75.698,11.586 75.125 C 11.651 74.552,11.764 74.008,11.837 73.917 C 11.910 73.825,12.023 73.469,12.087 73.125 C 12.225 72.387,11.876 72.250,11.448 72.875 " stroke="none" fill="#b41c24" fill-rule="evenodd"></path><path id="path2" d="M222.234 27.583 C 222.234 29.050,222.260 29.628,222.291 28.867 C 222.322 28.106,222.322 26.906,222.290 26.200 C 222.259 25.494,222.234 26.117,222.234 27.583 M222.246 47.167 C 222.246 53.904,222.266 56.660,222.292 53.292 C 222.317 49.923,222.317 44.410,222.292 41.042 C 222.266 37.673,222.246 40.429,222.246 47.167 M170.912 78.583 C 170.912 84.908,170.933 87.472,170.958 84.279 C 170.984 81.087,170.984 75.912,170.958 72.779 C 170.933 69.647,170.912 72.258,170.912 78.583 M170.908 95.750 C 170.908 98.775,170.930 100.036,170.958 98.552 C 170.986 97.068,170.986 94.593,170.958 93.052 C 170.931 91.511,170.908 92.725,170.908 95.750 M340.375 106.119 C 340.627 106.158,341.040 106.158,341.292 106.119 C 341.544 106.081,341.337 106.050,340.833 106.050 C 340.329 106.050,340.123 106.081,340.375 106.119 " stroke="none" fill="#606044" fill-rule="evenodd"></path><path id="path3" d="M82.558 68.833 C 82.558 69.612,82.587 69.931,82.622 69.542 C 82.657 69.152,82.657 68.515,82.622 68.125 C 82.587 67.735,82.558 68.054,82.558 68.833 " stroke="none" fill="#984044" fill-rule="evenodd"></path><path id="path4" d="M129.539 16.167 C 129.539 16.487,129.573 16.619,129.615 16.458 C 129.657 16.298,129.657 16.035,129.615 15.875 C 129.573 15.715,129.539 15.846,129.539 16.167 " stroke="none" fill="#981c48" fill-rule="evenodd"></path></g></svg>